<?xml version="1.0" standalone="no"?>
<!DOCTYPE svg PUBLIC "-//W3C//DTD SVG 20010904//EN"
 "http://www.w3.org/TR/2001/REC-SVG-20010904/DTD/svg10.dtd">
<svg version="1.0" xmlns="http://www.w3.org/2000/svg"
 width="1600.000000pt" height="2638.000000pt" viewBox="0 0 1600.000000 2638.000000"
 preserveAspectRatio="xMidYMid meet">

<g transform="translate(0.000000,2638.000000) scale(0.100000,-0.100000)"
fill="#000000" stroke="none">
<path d="M2273 25055 c4 -143 10 -424 13 -625 4 -201 9 -368 13 -372 7 -7 402
-140 621 -208 74 -23 182 -57 240 -77 58 -19 179 -57 270 -84 164 -50 268 -83
635 -206 105 -34 196 -63 203 -63 9 0 12 208 12 929 0 512 -4 932 -8 935 -4 2
-116 8 -247 11 -132 4 -343 11 -470 15 -126 4 -468 7 -759 6 l-529 -1 6 -260z
m337 235 c329 7 508 6 705 -2 94 -4 316 -10 495 -14 179 -3 343 -7 365 -9 22
-2 48 -4 58 -4 16 -1 17 -51 17 -907 0 -859 -1 -906 -17 -899 -51 21 -314 107
-563 185 -91 29 -277 88 -415 132 -137 44 -293 93 -345 110 -52 16 -206 66
-341 111 l-246 80 -7 421 c-4 232 -9 438 -11 459 -3 36 -8 323 -6 340 0 4 18
4 39 0 20 -4 143 -6 272 -3z"/>
<path d="M4318 25289 c-17 -9 -18 -67 -18 -989 0 -923 1 -979 18 -984 9 -2 42
-8 72 -12 52 -8 62 -9 102 -13 9 0 44 -26 78 -57 l60 -56 76 37 c50 24 84 35
99 31 12 -3 47 -25 76 -49 30 -24 96 -69 146 -101 82 -51 104 -71 182 -169 50
-62 107 -132 127 -155 32 -38 38 -54 48 -123 l10 -79 89 0 c55 0 98 5 115 14
15 7 71 28 125 46 95 31 97 32 97 63 0 18 3 77 7 132 10 166 22 151 17 -22
l-5 -161 65 -160 c36 -88 74 -178 85 -200 20 -39 22 -40 53 -31 18 5 61 9 95
9 60 0 64 -1 85 -34 13 -18 52 -77 87 -130 l63 -96 683 0 c419 0 686 -4 690
-9 3 -6 14 -77 25 -158 10 -81 33 -240 51 -353 17 -113 35 -235 39 -272 5 -38
11 -71 13 -75 3 -5 8 -38 11 -74 8 -85 -6 -182 -35 -244 -22 -46 -24 -61 -21
-183 1 -74 5 -138 8 -143 3 -5 78 -7 177 -5 95 3 431 8 747 11 316 3 585 8
598 11 l22 4 0 1295 0 1295 -25 10 c-27 10 -2498 11 -3105 1 l-375 -6 -12 -45
c-11 -43 -11 -43 -12 -12 -1 18 5 45 13 60 7 15 28 92 45 172 69 313 103 470
131 595 26 114 52 290 75 501 6 54 2 101 -20 249 -3 17 -12 86 -20 155 -8 69
-24 175 -35 235 -11 61 -26 146 -33 190 l-12 79 -310 2 c-171 2 -544 5 -830 8
-348 4 -526 2 -537 -5z m1649 -33 c2 -2 9 -35 14 -72 6 -38 19 -116 30 -174
10 -58 26 -159 34 -225 9 -66 20 -149 26 -184 14 -92 12 -245 -6 -406 -13
-121 -73 -417 -169 -835 -14 -58 -30 -132 -36 -165 -7 -33 -18 -71 -25 -85
-17 -33 -34 -171 -36 -290 -3 -145 3 -137 -129 -181 -129 -43 -247 -61 -254
-38 -2 8 -8 44 -14 82 -9 60 -15 73 -60 121 -27 30 -74 87 -104 128 -79 103
-115 138 -199 188 -41 25 -101 66 -134 91 -102 78 -111 79 -208 28 l-65 -33
-62 57 c-59 53 -67 57 -114 58 -28 0 -68 6 -89 12 l-38 12 1 954 c0 525 2 957
4 960 4 6 1627 3 1633 -3z m3380 -2171 c9 -3 12 -301 12 -1278 l1 -1274 -308
-7 c-169 -3 -505 -9 -748 -12 l-441 -7 -6 63 c-13 123 -9 172 23 245 26 62 29
82 30 171 0 55 -4 125 -9 155 -5 30 -13 81 -16 113 -5 42 -10 55 -16 45 -7 -9
-7 -5 -3 14 4 16 1 61 -5 100 -6 40 -22 142 -35 227 -14 85 -30 200 -37 255
-6 55 -16 108 -21 117 -8 16 -27 18 -201 17 -106 -1 -415 -1 -687 0 l-495 1
-85 128 -85 127 -100 0 -99 0 -35 85 c-18 47 -46 112 -61 145 -52 114 -53 126
-46 313 3 95 9 191 12 213 6 38 8 39 48 39 112 0 1431 13 1433 14 5 3 1970 -5
1980 -9z"/>
<path d="M1848 24100 c-21 -17 -38 -38 -38 -45 0 -7 -23 -47 -50 -89 -49 -73
-51 -77 -48 -138 3 -57 5 -63 26 -66 13 -2 39 6 58 17 30 18 52 21 159 21 108
0 226 -10 303 -26 22 -4 22 -6 22 -188 l0 -184 27 -33 28 -32 2 -416 c7 -1150
10 -1381 22 -1395 8 -10 9 -16 1 -21 -13 -8 -13 -270 0 -415 5 -58 12 -323 16
-590 l6 -485 126 -1 c70 -1 237 -5 372 -10 135 -4 299 -8 365 -8 l120 -1 -1
320 c-3 881 -5 1165 -12 1169 -7 4 -471 16 -799 20 -90 2 -166 6 -170 10 -5 5
212 6 481 5 l490 -4 3 500 c2 275 6 505 8 512 3 8 38 13 112 15 l108 3 3 200
c2 110 0 228 -3 263 -6 55 -9 63 -31 68 -23 6 -24 9 -25 108 -1 55 -3 173 -5
261 -2 88 -4 167 -4 176 0 15 -117 58 -340 124 -56 17 -837 272 -1020 333 -91
30 -158 46 -205 49 -67 4 -72 3 -107 -27z m247 -29 c50 -16 110 -36 135 -44
25 -8 167 -55 317 -105 149 -50 374 -123 500 -162 125 -39 278 -88 338 -108
l110 -37 5 -270 c3 -148 9 -276 13 -282 5 -7 14 -13 21 -13 18 0 25 -77 26
-280 1 -91 1 -173 1 -182 -1 -16 -13 -18 -106 -18 -76 0 -107 -4 -110 -12 -6
-19 -14 -415 -15 -735 l0 -283 -267 1 c-148 1 -360 5 -473 8 l-205 6 -7 85
c-3 47 -8 451 -11 898 l-4 812 -22 24 c-22 23 -23 34 -28 218 -3 106 -6 195
-8 196 -15 15 -240 42 -350 42 -112 0 -134 -3 -163 -20 -18 -11 -37 -20 -42
-20 -6 0 -10 21 -10 48 0 39 8 59 45 116 25 38 45 75 45 81 0 13 38 50 60 58
39 14 121 5 205 -22z m1103 -2607 l132 -6 1 -322 c0 -176 2 -332 4 -346 1 -14
6 -193 9 -399 l7 -374 -225 6 c-125 4 -328 10 -453 13 -126 3 -237 7 -248 9
-19 4 -20 12 -20 217 0 268 -15 1053 -21 1133 -2 33 -2 65 0 71 4 10 85 11
343 8 186 -2 398 -7 471 -10z"/>
<path d="M3550 23406 c0 -250 6 -307 31 -313 10 -3 20 -11 23 -19 4 -10 10
-472 7 -541 -1 -10 -30 -13 -110 -13 -78 0 -110 -3 -113 -12 -2 -7 -3 -233 -3
-503 l0 -490 70 -6 c39 -3 315 -7 615 -9 300 -1 579 -4 620 -6 41 -1 416 -6
833 -10 701 -7 757 -6 757 9 0 22 -130 348 -275 692 -35 83 -90 215 -124 295
-57 139 -61 145 -88 144 -32 -2 -99 -21 -188 -55 -45 -17 -82 -23 -148 -23
l-88 -1 -3 60 c-2 33 -10 77 -17 98 -23 61 -236 319 -292 353 -82 49 -180 116
-215 146 -40 34 -61 35 -110 4 -20 -13 -54 -29 -76 -36 l-38 -12 -54 53 c-53
52 -57 54 -137 66 -45 7 -97 12 -114 13 -32 0 -33 1 -33 45 0 35 -5 48 -22 59
-27 17 -666 226 -691 226 -15 0 -17 -19 -17 -214z m153 148 c61 -20 209 -69
327 -108 l215 -71 3 -47 c2 -33 9 -51 20 -57 15 -7 134 -22 186 -22 30 0 55
-17 111 -77 l52 -56 35 22 c19 12 43 22 53 22 9 0 28 9 42 20 35 27 49 25 97
-14 23 -18 68 -50 101 -71 33 -21 80 -51 105 -67 25 -15 68 -58 95 -94 28 -37
73 -92 101 -124 80 -89 85 -99 91 -199 3 -50 9 -91 12 -92 132 -11 175 -5 334
50 48 17 96 31 105 31 13 0 48 -77 146 -313 71 -171 135 -325 142 -342 41 -91
172 -430 169 -434 -5 -4 -1178 -1 -1305 4 -41 1 -399 6 -795 10 -558 5 -722
10 -730 19 -7 9 -8 177 -5 482 l5 469 110 5 110 5 1 245 c1 332 -1 358 -32
366 l-24 6 0 157 c0 86 -3 191 -6 234 -4 54 -3 77 5 77 6 0 62 -16 124 -36z"/>
<path d="M9934 23123 c-394 -3 -514 -6 -520 -16 -5 -6 -7 -309 -4 -677 l5
-664 35 -9 c19 -4 64 -14 99 -21 59 -12 69 -18 118 -72 30 -33 76 -92 104
-132 49 -71 50 -72 87 -67 119 16 238 24 402 25 l185 1 91 -49 c125 -66 164
-97 256 -199 54 -60 95 -119 129 -185 42 -82 63 -108 128 -167 l77 -69 138
-16 c75 -9 142 -13 148 -10 8 5 9 60 4 178 -3 94 -6 618 -6 1164 l-1 992 -482
-2 c-265 -2 -712 -4 -993 -5z m1441 -25 c2 -7 5 -523 7 -1145 3 -793 1 -1133
-6 -1133 -6 0 -63 7 -126 17 l-115 17 -74 65 c-64 57 -80 78 -118 158 -35 75
-60 110 -131 184 -107 113 -159 152 -285 214 l-98 49 -284 -12 c-156 -7 -290
-15 -299 -18 -9 -4 -28 16 -59 63 -24 37 -72 96 -106 130 -58 58 -67 62 -139
78 -42 10 -84 21 -93 26 -14 7 -16 75 -17 648 -1 352 2 642 6 645 5 3 397 8
873 12 475 4 865 7 866 8 1 1 45 2 97 4 71 2 98 -1 101 -10z"/>
<path d="M6067 22233 c-21 -2 -40 -10 -43 -17 -4 -12 22 -88 56 -161 5 -11 42
-99 81 -195 128 -312 161 -410 183 -540 9 -52 32 -187 52 -300 19 -113 42
-245 50 -295 8 -49 22 -126 31 -170 8 -44 17 -91 19 -105 16 -93 30 -142 55
-190 16 -30 29 -61 29 -68 0 -8 15 -46 34 -85 18 -40 37 -82 41 -95 l7 -23
506 2 c279 2 539 5 577 8 l70 6 0 100 c0 160 -15 617 -21 626 -2 4 12 43 33
86 35 73 37 84 37 168 -1 50 -8 137 -18 195 -36 230 -66 424 -92 607 l-28 193
-684 2 -685 3 -51 81 c-28 45 -67 102 -86 128 -38 49 -43 50 -153 39z m155
-90 c30 -43 69 -101 87 -129 23 -39 39 -53 59 -56 22 -3 936 -9 1282 -8 l55 0
29 -203 c15 -111 44 -301 64 -422 20 -121 37 -263 40 -316 3 -92 2 -98 -33
-175 l-36 -79 5 -110 c3 -60 9 -226 12 -367 l6 -258 -143 0 c-79 0 -327 -3
-550 -7 l-407 -6 -39 84 c-22 47 -43 98 -47 114 -4 16 -15 40 -25 54 -21 29
-50 146 -75 296 -20 116 -42 249 -55 320 -24 129 -42 232 -66 370 -41 236 -48
259 -151 505 -24 58 -57 141 -74 185 -17 44 -37 94 -45 110 -7 17 -21 50 -31
75 -9 25 -22 51 -27 58 -15 19 2 30 53 35 25 2 48 4 51 5 3 1 30 -33 61 -75z"/>
<path d="M9410 21394 c-1 -1251 0 -1378 13 -1386 6 -4 71 -6 142 -3 72 2 515
7 985 11 470 3 858 8 863 11 4 2 7 165 7 362 0 271 -3 361 -12 373 -13 15
-148 38 -227 38 -49 0 -88 23 -163 93 -53 51 -75 82 -110 155 -38 79 -59 107
-149 199 -87 89 -123 118 -209 167 l-104 59 -275 -12 c-152 -7 -297 -14 -322
-17 l-46 -5 -43 73 c-44 74 -128 171 -165 191 -20 11 -75 23 -147 34 l-38 5 0
-348z m152 297 c33 -12 111 -96 168 -182 32 -47 65 -89 72 -91 7 -3 65 1 128
8 63 7 206 13 318 14 l202 0 98 -56 c78 -45 116 -76 195 -157 80 -84 105 -117
138 -187 42 -90 87 -143 181 -216 61 -47 59 -47 221 -65 l107 -12 0 -348 0
-349 -217 0 c-120 -1 -285 -3 -368 -5 -82 -2 -423 -7 -757 -10 l-608 -5 -1
302 c-3 488 -3 855 -1 1126 l2 254 53 -7 c28 -4 60 -10 69 -14z"/>
<path d="M3382 21472 c-5 -14 4 -650 17 -1212 l6 -265 728 -3 c400 -1 727 1
727 5 0 5 2 331 4 726 2 512 0 721 -8 732 -9 13 -96 16 -626 21 -338 3 -666 6
-729 8 -91 2 -114 -1 -119 -12z m1441 -32 c4 -4 9 -326 10 -716 l2 -709 -700
3 c-385 2 -701 4 -702 6 -4 4 -14 424 -20 914 l-6 524 704 -7 c387 -4 708 -11
712 -15z"/>
<path d="M4889 21455 c-5 -4 -1 -1410 4 -1443 3 -20 1737 -30 1737 -11 0 16
-61 171 -100 254 -33 71 -31 63 -70 292 -17 98 -42 239 -56 313 -14 74 -29
160 -34 190 -9 57 -41 243 -60 339 -5 30 -13 57 -15 60 -7 7 -1399 13 -1406 6z
m972 -25 l416 0 6 -37 c3 -21 22 -130 42 -243 20 -113 52 -295 71 -405 58
-332 83 -448 109 -500 42 -87 93 -225 84 -231 -7 -4 -1661 5 -1665 10 -6 6
-12 1404 -7 1410 5 5 125 6 268 2 143 -3 447 -6 676 -6z"/>
<path d="M8807 20474 c-1 -2 -173 -6 -382 -9 -366 -7 -571 -11 -588 -14 -11
-1 -5 -241 6 -248 4 -2 7 -296 5 -651 -1 -356 1 -653 5 -659 6 -10 67 -13 247
-13 131 0 245 3 254 6 12 5 16 21 16 71 0 55 4 70 25 95 14 16 25 42 26 56 1
42 9 95 15 101 3 3 102 8 220 9 202 4 214 5 214 23 0 18 12 19 253 21 l252 3
0 605 0 605 -283 1 c-155 0 -283 -1 -285 -2z m551 -601 l2 -583 -254 0 -255 0
-3 -22 c-3 -23 -4 -23 -212 -26 -120 -1 -215 -7 -221 -12 -7 -6 -13 -31 -13
-56 -2 -57 -9 -80 -36 -119 -15 -21 -21 -46 -22 -85 l-1 -55 -236 -3 -237 -2
-1 652 c0 359 -2 699 -5 754 -3 56 -2 104 3 107 5 3 150 8 323 11 789 15 965
18 967 20 1 0 46 1 100 1 l98 0 3 -582z"/>
<path d="M12108 20008 c-8 -7 -43 -83 -78 -168 -85 -211 -102 -243 -221 -410
-109 -152 -202 -288 -246 -355 -58 -90 -136 -185 -150 -185 -8 0 -41 23 -73
50 l-59 51 -163 -5 c-260 -9 -548 -15 -913 -22 -187 -4 -441 -9 -565 -13
l-225 -6 0 -483 0 -482 424 2 425 3 100 201 c82 162 109 208 145 240 88 78
104 86 216 94 180 15 222 6 528 -117 l242 -96 150 -8 c83 -4 217 -8 299 -8
l149 -1 106 56 c58 31 147 84 196 118 186 128 585 367 777 466 116 60 117 71
1 78 -51 2 -82 9 -89 18 -9 11 -41 14 -135 14 -68 0 -129 -4 -134 -8 -6 -4
-16 -19 -23 -35 -11 -25 -15 -27 -50 -21 -36 6 -40 4 -52 -25 -11 -27 -17 -31
-39 -27 -14 3 -87 12 -161 21 -167 21 -205 28 -205 40 0 6 6 103 14 216 13
188 11 426 -4 554 -2 22 -6 87 -9 144 -2 73 -8 106 -17 112 -21 13 -143 11
-161 -3z m142 -30 c0 -7 7 -99 15 -204 20 -252 21 -333 4 -559 -7 -104 -13
-208 -14 -229 l0 -40 140 -18 c77 -9 176 -21 219 -26 l79 -8 16 27 c14 26 19
27 63 22 l48 -6 0 31 c0 30 1 30 63 36 156 14 167 14 176 -2 5 -9 31 -17 72
-21 l64 -7 -34 -20 c-52 -30 -390 -223 -441 -252 -81 -46 -279 -171 -323 -205
-24 -19 -80 -53 -123 -77 -43 -23 -104 -56 -134 -73 l-54 -30 -276 6 c-311 6
-283 1 -555 112 -259 106 -278 110 -460 110 -187 0 -200 -5 -301 -102 -53 -51
-72 -80 -156 -248 l-95 -190 -402 -3 -401 -2 2 462 3 463 445 6 c245 4 510 9
590 13 80 3 291 9 470 12 l325 6 58 -51 c56 -49 80 -59 103 -43 20 14 123 150
209 277 133 195 144 212 222 320 89 125 102 150 198 385 26 63 52 121 57 128
6 7 34 12 69 12 41 0 59 -4 59 -12z"/>
<path d="M11288 20006 c-1 -2 -235 -6 -518 -10 -1165 -15 -1336 -18 -1348 -21
-10 -4 -12 -108 -10 -497 l3 -493 330 0 c287 0 1198 12 1460 19 l90 3 59 -51
58 -51 24 30 c13 17 46 62 72 100 105 151 275 394 331 472 32 46 75 115 94
155 33 68 135 310 140 333 2 9 -774 19 -785 11z m746 -24 c5 -8 -91 -238 -139
-332 -15 -30 -73 -120 -129 -199 -55 -79 -142 -204 -193 -279 -50 -74 -96
-138 -100 -141 -5 -3 -19 -23 -32 -43 -12 -21 -27 -38 -33 -38 -5 0 -31 19
-56 41 l-47 41 -320 -5 c-176 -3 -589 -11 -919 -17 -329 -6 -605 -9 -612 -6
-12 4 -14 87 -14 475 l0 469 48 4 c26 2 187 6 357 7 171 2 333 5 360 7 28 1
415 5 860 9 446 4 812 9 814 11 8 8 150 4 155 -4z"/>
<path d="M2376 19972 c-22 -43 -20 -52 13 -52 42 0 62 -22 138 -146 197 -323
375 -586 472 -699 15 -16 85 -84 156 -150 397 -366 425 -396 470 -509 20 -50
50 -118 68 -151 31 -58 36 -62 127 -107 l95 -47 169 0 168 -1 82 -37 81 -38
165 4 c94 1 170 7 178 13 9 8 12 114 12 470 0 358 3 459 13 462 6 2 30 8 52
12 35 8 40 13 41 39 5 82 4 124 0 170 -3 28 -8 209 -12 403 l-7 352 -566 0
c-311 0 -611 3 -666 5 -55 3 -235 7 -400 10 -165 3 -316 8 -335 10 -19 3 -139
8 -266 11 l-232 7 -16 -31z m549 -19 c11 -3 443 -7 960 -10 517 -3 943 -8 946
-12 4 -3 8 -208 10 -456 l4 -450 -45 -9 c-25 -5 -48 -14 -52 -20 -4 -6 -8
-215 -8 -465 0 -250 -3 -457 -6 -460 -3 -3 -71 -8 -150 -11 l-144 -5 -83 37
-82 37 -170 1 -170 1 -95 47 c-107 53 -116 64 -186 237 -40 101 -55 123 -145
215 -82 82 -436 412 -455 423 -31 17 -308 411 -407 577 -15 25 -42 68 -59 97
-18 29 -53 84 -76 122 -33 53 -52 73 -78 83 -35 12 -40 19 -26 32 7 8 481 -2
517 -11z"/>
<path d="M4892 19951 c-3 -7 -2 -187 2 -400 7 -413 7 -561 0 -573 -3 -4 -25
-8 -49 -8 -26 0 -45 -5 -48 -13 -4 -12 -8 -299 -9 -733 0 -89 2 -166 5 -171 3
-5 259 -10 599 -11 326 -1 733 -5 904 -8 284 -6 311 -5 317 10 4 9 18 83 32
164 14 81 37 197 50 257 50 227 55 286 35 365 -11 43 -18 114 -25 250 -3 58
-10 161 -15 230 -5 69 -16 242 -25 384 -8 143 -16 261 -18 262 -1 2 -396 4
-876 6 -730 2 -874 1 -879 -11z m1724 -19 c7 -4 16 -91 23 -232 7 -124 16
-286 21 -360 5 -74 12 -180 15 -235 7 -134 13 -194 31 -295 15 -94 13 -112
-41 -355 -13 -60 -34 -168 -46 -240 -11 -71 -24 -136 -28 -144 -7 -11 -102
-13 -542 -11 -294 2 -570 3 -614 4 -44 1 -200 2 -348 4 l-267 2 2 438 3 437
45 3 c24 2 48 9 52 15 4 7 5 229 1 495 l-6 482 844 0 c464 0 849 -4 855 -8z"/>
<path d="M6890 19962 c-112 -1 -207 -6 -210 -11 -3 -5 -2 -60 2 -123 3 -62 9
-171 12 -243 6 -117 13 -227 32 -500 3 -49 7 -91 8 -93 2 -1 52 -4 112 -6 60
-2 178 -7 262 -11 l152 -8 0 -48 c0 -26 4 -50 8 -53 4 -2 59 2 122 10 63 8
185 14 270 13 l155 -1 3 542 3 542 -363 -4 c-200 -2 -455 -4 -568 -6z m901
-34 c0 -27 0 -349 0 -739 l-1 -277 -217 -5 c-120 -4 -233 -9 -250 -13 -33 -6
-33 -6 -33 32 0 22 -4 44 -8 50 -9 14 -90 22 -323 30 -103 4 -192 10 -196 13
-5 3 -17 150 -27 326 -10 176 -20 336 -22 355 -1 19 -4 80 -6 135 l-3 100 480
5 c264 3 508 6 543 8 58 2 62 1 63 -20z"/>
<path d="M2350 19137 c0 -424 4 -833 10 -907 7 -111 13 -1040 8 -1410 -1 -52
2 -140 7 -195 7 -91 6 -105 -14 -150 -18 -42 -21 -64 -17 -135 3 -47 5 -159 5
-249 l1 -164 177 7 c183 7 268 19 458 61 85 20 138 25 237 25 l128 0 0 238 c0
266 9 670 15 690 3 9 75 12 314 12 286 0 309 1 313 18 2 9 5 123 7 251 1 129
4 239 7 243 3 4 23 8 45 8 23 0 41 5 44 13 2 6 6 77 9 156 3 80 10 149 16 155
5 5 30 9 55 7 40 -2 46 1 55 23 16 43 24 224 11 240 -10 12 -39 14 -154 11
l-142 -4 -115 53 c-131 61 -127 56 -209 245 -26 59 -64 129 -85 154 -21 26
-129 131 -240 235 -110 103 -231 218 -268 255 -93 93 -229 277 -347 467 -29
47 -75 119 -102 160 -26 41 -69 112 -94 158 -26 46 -52 85 -58 87 -7 2 -27 6
-44 9 l-33 6 0 -773z m159 581 c331 -548 406 -640 854 -1048 76 -69 148 -141
162 -160 13 -19 47 -88 74 -153 62 -144 94 -195 129 -208 15 -6 63 -27 107
-47 79 -36 82 -37 235 -42 l155 -5 -1 -60 c0 -33 -4 -81 -8 -107 l-7 -47 -57
-3 -57 -3 -6 -40 c-6 -36 -18 -217 -19 -272 0 -19 -6 -22 -47 -25 -40 -2 -48
-6 -49 -23 0 -11 -1 -125 -2 -252 l-2 -233 -310 0 c-294 0 -310 -1 -319 -19
-7 -12 -11 -184 -11 -470 l-1 -451 -22 -5 c-12 -2 -76 -6 -142 -8 -79 -3 -163
-13 -245 -31 -178 -38 -237 -45 -398 -47 l-144 -1 -3 237 c-4 225 -3 240 17
279 19 38 20 49 12 176 -4 74 -7 164 -6 200 5 149 1 1245 -4 1269 -3 14 -8
414 -11 889 -5 849 -5 862 14 862 14 0 44 -40 112 -152z"/>
<path d="M8900 19215 l0 -25 -220 0 c-168 0 -222 -3 -225 -12 -2 -7 -6 -31 -9
-54 -3 -23 -16 -62 -30 -87 -23 -44 -24 -54 -22 -194 2 -82 4 -309 5 -505 l1
-358 490 0 490 0 -2 628 -3 627 -237 3 -238 2 0 -25z m460 -610 l0 -605 -465
0 -465 0 0 128 c0 70 -3 292 -7 493 l-6 366 26 48 c15 26 27 60 27 75 0 62 -9
60 236 60 217 0 224 1 224 20 0 19 7 20 215 20 l215 0 0 -605z"/>
<path d="M13273 18976 c-8 -15 -204 -136 -220 -136 -20 0 -407 -235 -668 -407
-71 -47 -167 -103 -213 -124 l-82 -39 -142 0 c-79 0 -217 5 -308 12 -149 10
-173 14 -245 44 -452 185 -425 177 -605 175 -157 -2 -185 -12 -265 -90 -41
-40 -68 -86 -152 -255 l-103 -206 -4 -97 c-3 -54 -8 -156 -11 -228 -9 -179 18
-301 110 -500 36 -77 65 -146 65 -152 0 -10 -34 -13 -132 -14 -165 -2 -309 -7
-315 -12 -7 -8 17 -52 60 -108 23 -31 68 -93 100 -137 50 -70 74 -92 185 -169
70 -49 177 -121 237 -158 61 -38 126 -79 145 -92 19 -13 107 -71 195 -130
l160 -106 195 -2 c257 -3 321 -17 655 -140 94 -34 220 -81 281 -104 109 -39
263 -111 354 -163 47 -27 65 -30 390 -58 111 -10 240 -33 338 -60 24 -6 34 -5
37 3 2 7 5 789 7 1740 l3 1727 -22 0 c-12 0 -26 -6 -30 -14z m32 -48 c-9 -69
-15 -950 -15 -2140 0 -1183 -1 -1238 -18 -1238 -10 0 -45 7 -77 16 -74 19
-232 39 -430 54 -82 6 -161 18 -175 25 -14 7 -52 27 -85 45 -150 82 -261 126
-650 263 -299 106 -356 117 -600 117 -101 0 -175 4 -188 11 -12 6 -85 53 -162
104 -190 126 -340 223 -400 260 -153 93 -285 192 -317 239 -18 27 -63 90 -100
139 -38 50 -68 94 -68 99 0 4 71 8 158 8 195 0 292 9 292 25 0 7 -31 77 -69
156 -53 110 -77 174 -100 268 -17 68 -28 127 -26 131 2 4 7 88 10 186 3 98 8
196 10 216 3 20 52 131 110 246 88 177 112 216 151 251 68 59 126 74 278 69
131 -5 170 -16 421 -126 213 -93 270 -102 671 -107 l171 -1 80 36 c69 32 269
156 388 241 67 48 461 279 528 309 23 11 80 44 127 75 47 30 86 54 87 55 1 0
0 -15 -2 -32z"/>
<path d="M6743 18958 c-7 -9 -4 -48 9 -123 10 -60 16 -119 14 -130 -2 -11 -14
-65 -25 -120 -12 -55 -33 -163 -47 -240 -14 -77 -32 -164 -40 -194 -8 -31 -14
-70 -14 -87 0 -32 1 -33 58 -40 31 -3 120 -16 197 -28 135 -20 164 -21 810
-16 l670 5 -4 430 c-1 237 -5 432 -8 435 -2 3 -201 6 -441 7 -396 2 -572 -4
-642 -21 -30 -7 -40 7 -40 61 0 36 -4 44 -23 48 -13 4 -27 5 -33 4 -10 -3
-273 9 -370 17 -43 3 -64 1 -71 -8z m380 -34 l87 -6 1 -32 c1 -17 2 -39 3 -49
2 -30 25 -35 99 -20 59 13 160 15 547 13 261 -1 477 -4 480 -6 2 -3 6 -189 8
-414 l4 -410 -663 0 c-521 0 -683 3 -754 14 -49 8 -117 17 -150 20 -117 13
-118 13 -112 55 11 74 59 319 87 448 33 146 37 224 15 323 -7 35 -11 68 -8 73
5 8 148 5 356 -9z"/>
<path d="M4266 17958 c-10 -172 -8 -168 -72 -168 -29 0 -55 -3 -57 -7 -3 -5
-8 -75 -12 -158 -4 -82 -10 -153 -14 -157 -3 -4 -24 -8 -46 -10 l-40 -3 -5
-255 -5 -255 -317 -3 -318 -2 -1 -413 c0 -226 -1 -432 -2 -457 l-2 -45 510 -6
c281 -4 585 -10 678 -14 92 -3 175 -4 185 -1 20 7 20 -2 12 459 -1 65 1 121 4
125 4 3 59 6 124 7 161 2 155 1 202 40 49 41 61 42 101 13 52 -39 59 -27 156
287 l28 90 520 2 c286 1 535 4 552 6 36 6 311 113 330 128 8 7 2 30 -22 87
-18 42 -54 129 -81 192 -26 63 -56 129 -66 145 -15 25 -18 52 -17 165 0 74 4
156 8 182 4 26 5 52 1 58 -10 16 -1692 33 -2050 20 -124 -4 -125 -4 -191 28
-36 18 -70 32 -76 32 -6 0 -13 -49 -17 -112z m111 44 c57 -27 59 -27 188 -19
133 8 1996 -1 2005 -10 3 -3 3 -87 1 -187 l-3 -183 42 -94 c23 -52 49 -107 57
-124 19 -38 83 -194 83 -204 0 -7 -68 -36 -220 -94 l-65 -25 -547 -4 c-468 -3
-550 -5 -561 -18 -8 -8 -38 -95 -67 -193 -30 -98 -57 -180 -62 -183 -4 -3 -25
4 -47 16 -22 11 -44 20 -48 20 -5 0 -30 -18 -57 -40 l-48 -40 -137 0 c-75 0
-142 -4 -150 -9 -12 -8 -13 -55 -7 -294 l7 -285 -658 5 c-362 2 -664 7 -672 9
-11 4 -13 26 -8 117 4 61 7 255 7 430 l0 317 310 0 310 0 10 26 c6 14 10 131
10 259 l0 234 43 3 42 3 7 50 c3 28 7 98 7 157 1 74 5 109 14 115 6 4 35 8 62
8 l50 0 14 133 c8 72 18 132 22 132 4 0 33 -12 66 -28z"/>
<path d="M6636 17989 c-5 -17 -20 -290 -18 -340 1 -19 19 -73 40 -120 21 -46
60 -138 86 -204 64 -159 60 -152 130 -214 33 -30 90 -80 126 -112 115 -102
233 -203 295 -251 70 -55 68 -53 134 -137 36 -46 51 -73 51 -95 0 -77 27 -119
185 -290 47 -51 93 -103 101 -114 8 -12 72 -60 142 -108 70 -48 155 -109 188
-136 34 -26 66 -48 70 -48 5 0 59 16 119 35 97 31 112 39 129 68 10 17 63 115
119 217 55 102 111 205 125 230 76 136 167 300 193 349 16 31 33 63 38 71 99
162 156 280 135 280 -5 0 -144 -57 -259 -107 -33 -14 -157 -74 -275 -134 -212
-106 -385 -186 -467 -216 l-43 -15 -120 113 -121 113 -95 -3 -96 -3 -79 -64
c-44 -35 -82 -64 -84 -64 -3 0 -5 6 -5 13 0 7 38 41 84 75 l84 62 103 0 104 0
113 -110 c61 -61 117 -110 122 -110 31 0 592 269 605 291 4 6 3 21 -3 32 -6
12 -52 108 -102 212 -51 105 -105 220 -121 257 l-29 66 31 74 c31 72 31 73 24
193 -10 160 -12 182 -18 192 -3 5 -296 10 -668 12 -607 2 -671 4 -773 22 -159
28 -294 36 -300 18z m288 -45 c146 -24 157 -24 791 -24 l643 0 7 -154 c7 -152
7 -155 -19 -211 -14 -32 -26 -68 -26 -82 0 -13 38 -103 85 -199 47 -96 85
-179 85 -185 0 -6 8 -23 19 -37 23 -33 61 -112 61 -127 0 -6 -15 -18 -32 -26
-62 -30 -373 -177 -451 -213 -42 -20 -82 -36 -88 -36 -6 0 -63 50 -127 110
l-116 110 -107 0 -108 0 -53 -43 c-78 -63 -114 -87 -131 -87 -8 0 -37 19 -63
43 -27 23 -74 63 -104 87 -52 42 -257 221 -326 285 -25 23 -55 83 -127 255
l-95 225 5 165 c3 91 10 168 15 171 13 9 100 0 262 -27z m1993 -1050 c-40 -71
-88 -158 -107 -194 -18 -36 -44 -81 -56 -101 -12 -20 -97 -174 -188 -343 -91
-168 -171 -315 -178 -326 -8 -12 -40 -27 -83 -40 -38 -11 -78 -25 -87 -30 -30
-17 -55 -11 -96 23 -21 17 -100 73 -175 124 -113 77 -150 109 -224 194 -48 56
-112 129 -141 163 -62 70 -68 83 -77 148 -5 36 -17 61 -50 102 l-45 54 38 34
c93 84 104 89 197 92 l86 4 119 -114 c66 -63 126 -114 134 -114 21 0 194 79
509 232 241 118 487 228 495 223 2 -2 -30 -61 -71 -131z"/>
<path d="M9635 17950 l-220 -5 -2 -80 c-2 -44 -5 -253 -7 -465 -2 -212 -7
-406 -11 -432 -4 -27 -4 -48 1 -48 4 0 24 11 43 24 l36 25 455 6 c250 3 458 9
461 13 9 9 -5 47 -65 177 -25 55 -57 145 -72 200 -26 97 -26 106 -23 344 l4
244 -190 1 c-104 1 -289 -1 -410 -4z m576 -225 c-2 -110 -5 -212 -6 -226 -7
-52 51 -254 105 -368 29 -61 50 -114 47 -118 -4 -3 -204 -8 -444 -10 -411 -4
-440 -6 -465 -24 -15 -10 -29 -15 -33 -10 -3 5 1 11 7 13 10 4 14 105 16 459
1 250 5 460 7 466 4 13 156 18 565 18 l205 0 -4 -200z"/>
<path d="M8411 17768 c3 -179 2 -184 -23 -241 l-27 -57 115 -236 c63 -130 117
-247 120 -260 14 -57 32 -52 379 100 97 42 115 64 236 281 46 83 103 181 126
220 l43 69 0 152 0 152 -486 1 -485 2 2 -183z m947 27 l3 -130 -37 -60 c-20
-33 -65 -112 -101 -175 -36 -63 -84 -146 -107 -184 -22 -37 -45 -76 -51 -87
-5 -10 -57 -40 -115 -68 -110 -52 -310 -134 -315 -129 -2 2 -17 32 -33 68 -16
36 -71 149 -121 252 l-90 188 25 52 c23 50 24 61 23 223 l-2 170 429 5 c236 3
443 5 459 5 l30 0 3 -130z"/>
<path d="M9295 17463 c-33 -58 -78 -138 -101 -177 -108 -188 -252 -447 -377
-676 -49 -91 -113 -205 -142 -255 -29 -49 -70 -124 -92 -165 -91 -172 -167
-305 -177 -312 -6 -5 -55 -22 -110 -40 -54 -18 -104 -38 -112 -45 -23 -23 -29
-84 -11 -112 9 -14 26 -45 38 -67 19 -36 35 -48 113 -88 50 -25 126 -61 169
-80 l77 -35 57 20 c31 10 67 19 81 19 13 0 72 -25 131 -55 170 -87 321 -155
386 -172 39 -11 123 -19 240 -22 99 -4 188 -10 198 -15 13 -6 17 -4 17 12 0
26 -38 32 -213 32 -189 0 -259 16 -437 100 -80 38 -179 87 -220 109 -41 22
-83 41 -93 41 -10 0 -45 -9 -79 -21 l-61 -20 -94 41 c-138 61 -233 109 -233
119 0 4 -13 28 -30 52 -32 47 -38 85 -17 112 6 9 56 33 111 52 54 19 105 40
112 46 7 6 29 39 47 72 19 34 47 85 62 112 15 28 56 102 90 165 79 145 105
192 115 205 4 6 33 60 65 120 32 61 61 115 65 120 5 6 55 96 113 200 57 105
123 224 147 265 23 41 59 104 80 140 65 115 142 245 147 250 2 3 3 -116 1
-265 -3 -216 -8 -285 -22 -343 -19 -77 -16 -94 12 -74 9 6 47 30 84 52 l66 41
210 6 c240 6 211 16 290 -102 25 -38 66 -95 91 -125 24 -30 53 -68 62 -85 23
-39 217 -172 697 -479 83 -54 152 -104 152 -111 0 -8 -46 -96 -103 -197 -57
-101 -115 -204 -130 -230 -14 -26 -37 -64 -50 -85 -13 -21 -48 -81 -77 -133
-29 -52 -57 -100 -62 -107 -11 -14 -36 -4 -163 66 -44 24 -149 79 -233 123
l-153 79 -56 -45 c-30 -25 -59 -46 -64 -46 -5 0 -29 10 -54 22 -28 14 -49 18
-54 12 -6 -5 -30 -74 -56 -154 -25 -79 -49 -148 -54 -153 -22 -22 69 -124 176
-196 71 -48 75 -56 103 -219 22 -127 24 -224 7 -291 l-12 -45 -110 -34 c-75
-24 -139 -37 -200 -41 l-90 -6 -3 -87 -3 -86 28 -6 c15 -3 57 -8 93 -11 36 -3
101 -10 145 -16 83 -11 264 -28 301 -29 16 0 44 -29 98 -99 79 -104 105 -124
212 -167 65 -26 103 -32 365 -58 100 -10 166 -23 250 -49 63 -20 134 -42 159
-49 42 -12 43 -13 15 -16 -16 -1 -78 13 -136 32 -130 43 -225 59 -464 82 -112
11 -165 24 -246 63 -83 39 -89 45 -164 141 -63 81 -83 100 -104 100 -14 0 -66
5 -116 10 -49 5 -162 16 -250 25 -88 9 -170 20 -182 25 -22 9 -23 15 -23 115
l0 105 88 0 c71 0 108 6 202 35 63 20 117 41 121 47 22 34 21 147 0 281 -30
183 -33 191 -95 232 -89 59 -176 144 -176 172 0 21 -4 24 -27 21 -32 -4 -39
-16 -110 -193 -57 -144 -51 -135 -144 -232 -117 -124 -274 -295 -301 -328 -13
-16 -44 -73 -70 -125 -62 -126 -96 -172 -163 -215 -59 -37 -63 -44 -98 -165
-14 -46 -32 -85 -48 -101 -25 -24 -48 -107 -36 -126 3 -5 29 -21 59 -36 75
-40 79 -43 127 -128 l43 -77 62 4 c33 3 102 10 152 15 102 12 120 9 234 -43
36 -17 85 -38 110 -48 25 -10 86 -38 135 -62 195 -95 137 -87 653 -89 251 0
551 -2 665 -3 l208 -3 77 59 c42 32 95 71 117 86 64 43 125 94 125 106 0 5
-38 49 -85 97 -47 47 -85 94 -85 103 0 9 23 41 50 71 47 51 50 59 50 108 0
645 14 1614 24 1623 6 7 55 15 109 18 l98 7 82 -44 c45 -25 165 -87 267 -138
102 -51 196 -100 210 -110 26 -17 364 -189 373 -189 4 0 217 -99 457 -212 137
-65 301 -138 311 -138 5 0 9 78 9 173 0 196 14 408 35 547 12 83 12 96 0 106
-30 23 -322 75 -501 89 -217 17 -278 28 -324 59 -49 32 -234 121 -300 145 -30
10 -107 38 -170 61 -227 84 -459 160 -529 175 -51 10 -132 15 -272 15 l-199 0
-26 -42 c-28 -48 -253 -443 -352 -618 -98 -174 -88 -161 -120 -147 -15 6 -117
58 -227 116 -110 57 -225 117 -255 132 l-54 29 -54 -53 -53 -52 -39 23 c-47
27 -57 27 -63 5 -36 -131 -82 -273 -89 -273 -15 0 -8 38 21 122 16 46 37 109
46 141 8 31 21 57 28 57 7 0 27 -9 45 -20 18 -11 37 -20 43 -20 6 0 35 20 64
46 l53 45 199 -102 c109 -56 229 -120 266 -141 38 -22 75 -37 82 -34 8 3 26
27 40 53 14 26 49 86 77 133 48 80 139 238 248 430 26 47 59 108 74 137 l26
52 -58 40 c-61 43 -290 191 -462 300 -58 36 -154 101 -213 143 -115 82 -168
141 -303 340 l-57 83 -226 5 -226 5 -65 -42 c-35 -23 -66 -40 -68 -38 -2 2 1
35 7 74 16 103 15 621 -1 621 -7 0 -40 -48 -73 -107z m2255 -1486 c117 -29
725 -249 823 -298 31 -16 82 -45 113 -65 68 -44 140 -59 339 -74 164 -12 346
-39 444 -66 l63 -18 -6 -45 c-15 -113 -36 -459 -36 -588 l0 -142 -97 46 c-54
25 -174 82 -268 126 -93 44 -215 100 -270 124 -108 48 -433 209 -451 224 -11
9 -170 91 -437 226 l-149 75 -112 -7 c-62 -4 -118 -10 -125 -14 -9 -6 -13
-136 -16 -512 -3 -277 -7 -603 -10 -724 -3 -121 -5 -274 -5 -340 l-1 -120 -39
-44 -40 -44 -63 18 c-34 9 -107 32 -162 51 -55 18 -131 35 -170 39 -38 3 -101
10 -140 15 -38 5 -104 12 -145 16 -77 7 -176 40 -242 81 -32 19 -97 94 -168
193 -16 21 -67 28 -430 61 -175 16 -161 8 -158 87 l3 67 71 3 c46 2 115 16
195 40 l123 37 18 75 c21 86 19 140 -14 330 -24 140 -20 133 -136 215 -100 71
-102 78 -57 222 20 65 39 126 41 136 5 16 8 16 45 -5 43 -24 37 -26 116 45 39
37 47 35 183 -41 209 -117 400 -211 414 -206 13 5 45 54 116 179 12 22 64 112
115 200 51 88 116 203 145 255 28 52 66 117 83 144 l31 48 200 -5 c135 -3 222
-10 266 -20z m-1830 -934 c30 -29 79 -69 109 -89 31 -22 58 -49 66 -68 16 -38
46 -259 46 -333 0 -81 -5 -90 -64 -104 -28 -7 -70 -20 -92 -30 -31 -14 -65
-19 -147 -19 -131 0 -128 3 -128 -144 0 -101 1 -106 25 -122 24 -15 224 -41
475 -59 52 -4 103 -11 112 -16 9 -5 44 -46 78 -91 68 -91 113 -124 218 -164
90 -34 128 -41 316 -59 211 -20 208 -20 376 -73 l145 -46 82 -85 c94 -96 95
-88 -6 -159 -37 -26 -97 -70 -136 -99 l-70 -52 -670 6 -670 5 -155 73 c-363
170 -386 178 -483 165 -146 -19 -215 -21 -227 -8 -7 7 -26 40 -43 73 -27 50
-42 65 -95 95 -34 20 -67 41 -72 46 -17 17 1 72 32 103 18 18 34 49 43 82 31
120 37 130 107 181 75 56 96 84 162 222 50 103 85 146 357 433 93 99 98 106
144 220 26 65 56 138 67 163 19 41 22 43 32 25 6 -10 36 -43 66 -72z"/>
<path d="M6635 17079 c-94 -37 -171 -61 -205 -64 -30 -3 -275 -7 -544 -9 -389
-4 -491 -7 -497 -18 -5 -7 -16 -38 -24 -68 -43 -149 -96 -310 -105 -315 -19
-12 -10 -163 19 -336 16 -96 39 -264 51 -374 11 -110 27 -249 35 -310 8 -64
16 -248 20 -440 6 -367 12 -465 29 -466 23 -2 122 2 166 6 236 22 251 25 344
69 l92 43 13 69 c22 109 30 116 24 22 -6 -82 -5 -88 20 -117 14 -17 67 -112
118 -212 91 -177 127 -229 156 -229 20 0 211 -104 368 -199 137 -84 293 -173
360 -206 32 -16 42 -28 52 -65 8 -25 12 -54 10 -65 -4 -24 -10 -11 -23 50 -8
37 -14 43 -89 81 -44 22 -173 97 -286 165 -255 153 -256 154 -353 200 -44 21
-87 46 -97 56 -10 10 -55 90 -100 178 -80 155 -142 255 -159 255 -5 0 -50 -21
-102 -47 -89 -44 -98 -47 -208 -54 -63 -5 -133 -11 -155 -13 -22 -3 -58 -5
-81 -5 l-41 -1 -6 -185 c-6 -178 -7 -185 -33 -225 -24 -36 -27 -51 -29 -138
-2 -53 -4 -99 -5 -102 -1 -3 -1 -9 0 -15 2 -9 5 -103 9 -287 1 -37 5 -48 17
-48 15 0 15 -17 8 -167 -5 -93 -9 -206 -9 -253 l0 -85 68 -3 c40 -2 67 -7 67
-14 0 -16 81 -4 182 25 46 14 95 28 111 31 22 5 27 12 27 35 0 26 6 30 103 66
56 20 199 74 317 119 l215 81 235 -1 235 -2 84 -41 c46 -22 88 -38 92 -35 5 3
9 79 9 169 0 129 3 163 13 160 8 -4 28 45 64 157 29 90 65 182 80 205 15 22
46 67 68 99 22 31 60 88 85 125 44 67 260 373 291 411 15 20 16 20 72 -12 32
-18 63 -30 70 -27 13 5 80 115 153 252 54 103 61 116 174 320 109 196 110 198
110 212 0 6 -23 24 -50 40 -41 23 -58 41 -86 93 -20 36 -41 68 -47 72 -8 5 -6
18 6 43 29 60 41 46 -157 188 -45 32 -106 75 -136 95 -30 20 -65 45 -78 56
l-22 20 -39 -30 c-104 -79 -197 -159 -312 -271 -78 -76 -135 -123 -147 -123
-19 0 -191 155 -286 257 -22 24 -45 43 -51 43 -18 0 -332 -324 -417 -430 -105
-131 -112 -137 -150 -122 -27 10 -36 8 -74 -14 -48 -28 -50 -32 -32 -80 15
-43 5 -62 -84 -160 -37 -41 -70 -84 -73 -97 -8 -30 -13 -59 -14 -74 -1 -7 -5
-13 -9 -13 -4 0 -5 26 -2 58 5 54 9 62 88 152 45 52 82 102 82 111 0 8 -7 24
-15 35 -23 31 -18 47 28 75 81 51 87 52 108 33 16 -14 21 -15 36 -3 10 8 25
23 33 34 75 102 474 525 494 525 5 0 78 -69 163 -152 84 -84 160 -154 168
-156 9 -2 61 40 118 96 107 105 160 152 272 242 82 67 95 79 95 90 0 5 -36 47
-81 94 -140 147 -176 197 -184 258 -4 29 -12 62 -18 73 -25 48 -103 136 -165
185 -78 63 -234 198 -373 323 -53 48 -103 87 -110 86 -8 0 -81 -27 -164 -60z
m278 -62 c56 -50 176 -156 267 -234 220 -190 260 -239 260 -320 0 -36 8 -52
60 -116 33 -41 92 -109 131 -151 41 -44 68 -81 63 -85 -5 -5 -49 -41 -99 -80
-49 -39 -146 -124 -213 -189 -68 -64 -127 -117 -131 -117 -4 0 -79 69 -167
153 -87 83 -163 152 -169 152 -17 0 -419 -412 -456 -466 -8 -12 -29 -38 -47
-59 -31 -34 -36 -36 -57 -25 -22 12 -32 8 -101 -31 -42 -24 -79 -50 -82 -58
-3 -8 4 -31 16 -51 l21 -37 -36 -44 c-20 -24 -57 -66 -83 -94 -46 -49 -47 -52
-64 -155 -9 -58 -22 -127 -29 -154 l-12 -49 -90 -39 c-82 -37 -101 -41 -215
-49 -69 -5 -155 -12 -192 -15 l-68 -7 -1 59 c-6 485 -19 787 -38 944 -43 351
-62 497 -81 615 -32 199 -30 222 46 450 36 110 69 203 72 207 4 3 243 8 532
11 l525 4 155 61 c85 33 161 61 168 61 8 1 60 -41 115 -92z m868 -979 c71 -55
90 -68 189 -137 58 -39 117 -82 133 -94 27 -23 27 -24 13 -63 l-14 -40 53 -84
c39 -64 62 -91 93 -108 45 -25 50 -36 28 -68 -8 -11 -63 -110 -123 -219 -225
-411 -268 -488 -281 -493 -8 -2 -34 9 -58 27 -25 17 -51 31 -59 31 -8 0 -53
-55 -100 -122 -47 -68 -123 -177 -170 -243 -46 -66 -99 -142 -117 -168 -18
-27 -50 -71 -71 -98 -37 -49 -71 -129 -109 -264 -26 -95 -26 -94 -44 -11 -9
39 -12 42 -131 102 -67 34 -137 72 -155 85 -96 69 -394 239 -489 280 -42 18
-52 29 -85 92 -20 40 -75 141 -121 224 -93 171 -96 183 -67 321 18 88 35 118
99 182 26 25 56 60 67 78 18 30 19 38 9 74 -13 43 -13 43 33 69 13 8 25 8 42
-2 40 -21 70 4 191 156 39 49 96 110 231 249 l144 148 57 -53 c31 -30 106
-103 168 -163 l112 -110 138 130 c134 127 349 314 360 314 2 0 18 -10 34 -22z
m-1728 -1320 c13 -18 63 -109 112 -203 48 -93 96 -180 107 -192 11 -12 46 -32
77 -44 72 -29 224 -114 476 -268 109 -66 206 -121 215 -121 32 0 51 -37 65
-123 14 -88 16 -317 2 -317 -4 0 -38 15 -75 34 l-68 34 -209 7 c-153 5 -222 4
-255 -5 -41 -11 -318 -112 -583 -212 -101 -38 -108 -43 -103 -64 5 -20 2 -25
-21 -30 -16 -3 -63 -17 -107 -31 -64 -21 -90 -24 -140 -19 -61 7 -130 17 -133
19 -1 2 8 175 21 409 5 80 3 89 -14 98 -19 10 -20 23 -20 255 l0 245 29 57
c28 55 30 67 36 218 4 88 9 162 11 165 3 3 83 10 178 15 l173 11 94 46 c52 26
97 47 101 47 4 1 18 -14 31 -31z"/>
<path d="M5090 16609 l-52 -39 -129 0 -129 0 -1 -47 c0 -27 0 -160 1 -298 0
-174 -4 -274 -13 -328 -13 -71 -19 -83 -58 -123 -45 -46 -73 -63 -144 -87 -69
-24 -97 -98 -79 -208 6 -35 7 -36 73 -47 36 -6 107 -18 156 -27 50 -8 160 -24
245 -35 184 -24 237 -35 307 -67 91 -40 93 -38 93 73 0 52 -4 125 -9 162 -6
37 -17 126 -25 197 -9 72 -23 186 -31 255 -8 69 -17 136 -19 150 -2 14 -7 48
-11 75 -3 28 -12 82 -20 120 -8 39 -16 115 -19 170 -4 90 -7 101 -28 116 -43
30 -54 29 -108 -12z m88 -5 c19 -13 22 -24 22 -88 0 -40 9 -126 20 -189 22
-125 52 -343 69 -497 6 -52 17 -151 26 -220 17 -147 20 -300 5 -300 -6 0 -32
11 -58 24 -31 15 -88 29 -167 40 -122 18 -370 56 -505 79 l-75 13 -9 47 c-7
40 -5 54 15 94 22 44 30 50 83 68 41 14 77 36 114 71 79 72 86 112 87 494 l1
295 119 5 c102 4 126 8 156 28 20 12 42 29 49 37 16 19 20 19 48 -1z"/>
<path d="M3105 15992 c-16 -2 -106 -18 -200 -37 -128 -25 -209 -35 -330 -39
-88 -4 -169 -8 -180 -11 -11 -2 -26 -4 -32 -4 -10 -1 -13 -50 -13 -211 l0
-210 83 -1 c45 0 91 -2 102 -4 39 -7 191 -14 285 -15 l96 0 47 -70 c26 -38 47
-76 47 -84 0 -21 112 -119 196 -171 88 -55 127 -59 176 -17 46 40 56 42 129
27 61 -13 67 -17 136 -92 40 -43 73 -81 73 -85 0 -5 124 -8 275 -8 l275 0 43
28 42 27 500 5 500 5 3 108 3 108 -48 20 c-26 11 -66 29 -88 38 -22 10 -83 24
-135 30 -52 7 -162 23 -245 36 -82 13 -186 29 -230 35 -153 22 -155 24 -155
138 0 47 6 75 24 111 23 45 29 49 87 66 63 17 118 52 144 92 10 15 45 145 45
169 0 6 -1601 22 -1655 16z m1000 -33 c292 -1 552 -4 578 -7 44 -4 48 -6 42
-26 -4 -11 -12 -40 -18 -64 -11 -46 -75 -112 -107 -112 -9 0 -38 -7 -64 -16
-42 -15 -50 -22 -78 -77 -29 -59 -30 -66 -24 -143 3 -45 8 -89 11 -97 6 -14
101 -32 400 -77 281 -43 361 -58 420 -83 l60 -26 3 -95 3 -96 -494 0 -494 0
-44 -30 -44 -30 -257 0 -257 0 -65 78 c-36 42 -78 85 -93 94 -16 9 -60 19 -99
23 l-71 7 -41 -37 c-35 -31 -46 -36 -72 -30 -58 13 -253 165 -270 211 -10 26
-87 141 -100 149 -5 3 -120 10 -257 16 -136 5 -258 12 -270 15 -23 4 -23 6
-23 188 l0 183 173 8 c135 5 208 14 337 40 91 19 176 36 190 38 14 3 131 3
260 1 129 -2 474 -4 765 -5z"/>
<path d="M8335 15454 c-9 -14 -43 -74 -74 -133 -32 -58 -67 -122 -78 -141
-151 -269 -263 -479 -263 -492 0 -10 47 -44 120 -89 67 -40 123 -76 126 -81 3
-5 -7 -29 -21 -54 -15 -25 -23 -50 -19 -54 8 -7 83 -51 327 -192 32 -18 110
-64 174 -101 63 -38 125 -72 136 -76 16 -6 36 3 85 37 70 49 101 91 175 237
46 91 60 111 145 200 27 28 84 88 127 135 43 47 100 108 126 136 39 41 59 79
113 210 36 88 66 165 66 172 0 9 -36 12 -134 12 -176 0 -258 17 -390 79 -59
28 -110 51 -113 51 -3 0 -58 27 -124 60 -65 33 -124 60 -131 60 -7 0 -42 -9
-79 -21 l-66 -21 -93 46 c-51 25 -99 46 -106 46 -6 0 -19 -12 -29 -26z m136
-48 l94 -45 80 21 80 21 70 -39 c39 -22 113 -59 165 -83 52 -24 118 -54 147
-68 77 -35 179 -53 318 -55 69 -1 130 -5 136 -9 8 -4 6 -15 -4 -35 -8 -16 -34
-76 -57 -134 -54 -131 -66 -149 -182 -269 -218 -225 -259 -274 -305 -366 -70
-139 -106 -188 -172 -238 -34 -26 -64 -47 -66 -47 -3 0 -43 24 -90 53 -46 28
-114 69 -152 90 -37 20 -122 69 -188 107 -66 38 -135 77 -152 87 -38 19 -42
42 -13 68 11 10 20 28 20 41 0 26 -8 32 -135 110 -49 31 -96 62 -104 69 -14
14 -14 14 91 200 25 44 57 101 72 128 14 26 37 66 50 90 83 148 126 228 126
233 0 10 64 114 71 114 3 0 49 -20 100 -44z"/>
<path d="M2354 15445 c-4 -9 -4 -125 0 -256 l7 -239 -88 0 c-48 0 -201 -3
-339 -7 -249 -6 -251 -6 -281 16 -30 23 -32 23 -164 11 -74 -7 -135 -13 -135
-13 -1 -1 -4 -557 -8 -1234 l-7 -1233 53 1 c90 2 102 8 110 61 3 26 9 51 12
57 4 5 47 31 97 58 53 28 94 56 99 68 4 11 10 58 13 104 6 80 8 85 47 127 22
24 40 53 40 64 0 11 9 34 20 52 27 45 25 66 -9 86 -40 22 -69 125 -53 181 23
76 22 76 332 86 250 8 317 14 372 36 27 10 60 19 74 19 14 0 46 8 72 19 26 10
65 23 87 29 68 18 157 51 230 86 147 71 203 96 210 96 4 0 39 16 78 35 39 19
76 35 83 35 7 0 68 17 136 39 68 21 157 47 198 57 41 10 78 22 81 27 3 4 17
10 30 12 13 3 51 11 84 19 33 8 61 13 63 12 8 -9 -314 -109 -326 -102 -5 3
-20 -1 -35 -9 -25 -13 -49 -21 -217 -76 -68 -22 -71 -23 -213 -88 -49 -23 -97
-41 -106 -41 -10 0 -26 -9 -36 -20 -10 -11 -22 -20 -27 -20 -5 0 -28 -9 -50
-20 -23 -11 -52 -20 -64 -20 -12 0 -24 -5 -26 -10 -2 -6 -35 -19 -73 -29 -39
-10 -117 -33 -175 -50 -141 -43 -179 -48 -413 -56 -111 -4 -229 -10 -261 -14
-56 -6 -60 -8 -79 -45 -17 -33 -18 -43 -9 -70 7 -18 12 -42 12 -54 0 -28 35
-49 44 -26 11 29 6 52 -19 82 -20 24 -22 32 -12 40 8 7 25 8 41 4 15 -4 65 -3
109 2 57 6 115 6 187 -2 104 -12 105 -12 143 -52 30 -32 46 -40 75 -41 20 -1
42 0 47 1 68 18 115 -13 115 -76 0 -46 1 -46 73 -59 20 -3 37 -11 37 -16 0 -6
-18 -56 -39 -112 -22 -56 -42 -112 -45 -123 -5 -16 -17 -23 -47 -27 -22 -3
-52 -13 -67 -23 -15 -10 -33 -19 -40 -20 -34 -6 -43 -15 -40 -41 l3 -28 101 3
c55 1 136 8 180 15 45 7 86 11 91 10 14 -5 5 -320 -10 -347 -5 -11 -11 -54
-12 -96 -3 -70 -9 -89 -70 -224 -37 -81 -65 -149 -63 -150 9 -7 155 -26 196
-26 42 0 192 -38 232 -59 20 -11 38 -133 41 -280 1 -62 4 -69 28 -83 14 -9 49
-20 76 -26 28 -6 126 -36 220 -67 93 -31 179 -56 190 -57 34 -3 123 23 137 39
13 17 99 75 161 110 50 28 64 48 103 143 17 41 41 94 53 118 12 23 19 42 16
42 -2 0 4 15 15 33 25 41 25 66 -1 127 -23 52 -37 61 -132 76 -20 4 -40 10
-42 14 -6 10 -24 135 -32 215 -5 60 -5 61 43 124 148 195 143 186 140 263 -3
68 -4 71 -67 155 -35 48 -88 116 -117 152 -58 71 -64 101 -22 111 25 6 25 6
28 138 1 73 6 132 11 132 4 0 7 -24 6 -52 -1 -29 2 -61 7 -70 5 -10 5 -18 1
-18 -4 0 -8 -35 -8 -77 0 -75 -1 -78 -22 -76 -37 4 -28 -24 30 -96 30 -36 82
-103 116 -148 l62 -83 424 0 423 0 48 88 c62 114 91 166 126 227 63 108 197
394 219 465 12 41 31 93 42 115 20 38 21 54 18 321 -3 295 -2 303 42 352 19
20 21 38 25 207 4 163 3 185 -11 185 -9 0 -23 7 -31 16 -13 13 -16 42 -16 164
0 165 2 160 -74 160 -47 0 -88 -23 -167 -94 -44 -39 -112 -97 -285 -243 -81
-68 -135 -113 -359 -297 -66 -54 -140 -117 -165 -140 -26 -23 -77 -66 -115
-96 -126 -101 -145 -121 -145 -149 0 -18 -12 -39 -37 -63 -38 -36 -212 -171
-242 -188 -15 -8 -15 -11 1 -42 33 -63 91 -233 95 -280 3 -25 0 -55 -6 -65 -9
-16 -11 -14 -12 12 0 17 -2 46 -4 65 -2 39 -53 179 -90 252 l-24 47 37 29 c20
16 69 54 108 84 135 101 190 162 132 143 -13 -4 -41 -9 -63 -11 l-40 -4 30 15
c17 8 39 14 49 15 10 0 34 16 53 35 19 20 46 43 61 53 15 9 74 57 131 107 57
49 129 110 160 135 31 25 101 83 156 129 55 46 160 133 234 195 74 61 173 145
220 186 48 41 108 92 134 114 26 21 47 42 47 47 0 5 -179 9 -405 9 l-405 0
-48 -30 -49 -30 -280 0 -281 0 -40 53 c-66 84 -106 118 -154 129 -68 15 -87
12 -126 -20 -54 -42 -75 -46 -126 -23 -85 37 -251 170 -270 216 -22 52 -87
135 -109 140 -12 2 -80 6 -152 9 -71 3 -185 8 -252 12 -111 6 -123 5 -129 -11z
m436 -34 l105 -6 38 -55 c21 -30 42 -66 48 -80 5 -14 33 -44 62 -68 211 -173
267 -193 358 -126 45 33 52 35 81 25 17 -6 42 -11 55 -11 17 0 36 -17 71 -62
26 -35 59 -75 74 -90 l26 -28 286 0 285 0 48 30 49 30 369 -2 370 -3 -25 -22
c-148 -129 -201 -174 -244 -210 -195 -159 -253 -207 -330 -273 -49 -41 -101
-84 -116 -95 -15 -11 -58 -48 -96 -81 -115 -103 -288 -244 -314 -258 -14 -7
-68 -26 -120 -40 -52 -15 -144 -43 -205 -61 -198 -62 -370 -114 -395 -121 -14
-3 -71 -28 -128 -55 -56 -27 -105 -49 -107 -49 -3 0 -47 -20 -97 -44 -95 -44
-356 -136 -387 -136 -10 0 -44 -9 -77 -21 -61 -21 -166 -31 -499 -44 -88 -3
-169 -9 -180 -11 -13 -3 -28 -25 -43 -65 -23 -58 -23 -61 -7 -121 18 -71 39
-108 60 -108 19 0 19 -4 -5 -76 -14 -41 -34 -73 -60 -99 l-40 -39 0 -86 c0
-113 0 -114 -147 -184 -59 -29 -64 -35 -78 -96 -9 -40 -13 -45 -48 -53 -72
-17 -71 -23 -64 226 4 122 10 661 13 1197 3 536 7 980 9 986 2 7 46 13 111 17
93 4 112 2 144 -14 31 -17 52 -19 136 -15 54 2 215 5 357 5 l258 1 -3 256 -3
256 150 -7 c83 -4 197 -10 255 -14z m2541 -463 c1 -13 2 -36 4 -53 1 -16 3
-74 4 -127 1 -95 9 -119 42 -130 7 -2 10 -55 10 -167 l-2 -163 -29 -44 -30
-43 0 -283 c0 -156 -4 -288 -9 -293 -5 -6 -23 -57 -41 -115 -20 -65 -70 -180
-129 -300 -105 -209 -258 -490 -276 -503 -5 -4 -189 -7 -408 -6 l-399 2 -23
31 c-13 17 -61 78 -106 135 -62 79 -78 106 -68 112 8 5 17 9 22 9 4 0 7 98 7
218 l0 217 -54 132 -54 133 42 33 c22 18 73 56 113 85 87 64 136 117 129 140
-7 23 1 34 60 78 27 22 121 100 208 174 87 74 224 188 305 254 80 65 166 137
191 160 25 22 68 60 95 83 28 23 106 89 175 146 120 101 127 106 173 106 42 1
47 -1 48 -21z m-1391 -1027 c0 -7 -67 -62 -183 -147 -47 -34 -55 -55 -34 -87
8 -12 20 -40 26 -62 7 -22 26 -74 42 -115 27 -71 29 -85 32 -248 3 -166 2
-174 -17 -184 -12 -6 -23 -11 -26 -10 -3 1 -6 -18 -8 -42 -3 -40 1 -49 50
-106 29 -34 81 -101 116 -148 61 -84 62 -86 62 -150 0 -65 -1 -66 -58 -136
-100 -123 -122 -160 -122 -208 0 -59 20 -240 29 -258 6 -11 116 -47 153 -49
11 -1 34 -51 41 -88 4 -21 2 -37 -7 -45 -16 -17 -93 -187 -112 -250 -14 -45
-52 -88 -79 -88 -10 0 -57 -33 -157 -110 -15 -11 -48 -24 -74 -29 -50 -9 -126
8 -310 72 -96 34 -174 57 -189 57 -26 0 -34 30 -45 175 -7 83 -17 161 -23 174
-10 19 -32 30 -107 52 -52 15 -120 31 -150 34 -30 3 -71 8 -90 10 -19 2 -45 4
-57 4 -13 1 -23 6 -23 11 0 6 26 66 59 134 38 80 61 142 65 177 21 172 35 493
23 506 -4 4 -268 -18 -356 -30 -8 -1 -16 4 -18 11 -3 7 5 12 21 12 14 0 29 7
34 16 5 9 34 21 67 27 l59 12 49 144 c46 137 48 146 31 158 -10 7 -32 13 -49
13 -40 0 -55 16 -55 56 0 40 -9 64 -24 64 -6 0 -24 7 -41 16 -25 13 -36 13
-67 3 -43 -14 -92 1 -109 33 -15 28 -63 45 -153 53 -132 12 -129 21 10 29 71
4 156 9 190 11 33 2 85 13 115 23 30 11 106 34 169 52 210 60 252 77 586 236
61 29 185 70 387 129 84 24 186 55 227 68 84 28 100 31 100 18z m-2025 -561
c-3 -5 -22 -10 -41 -10 -19 0 -34 5 -34 10 0 6 18 10 41 10 24 0 38 -4 34 -10z"/>
<path d="M11473 15453 l-53 -4 -1 -217 c0 -119 -2 -255 -4 -302 -10 -229 -15
-506 -15 -816 l0 -340 -50 -56 c-27 -31 -50 -59 -50 -63 0 -4 67 -77 149 -163
81 -87 181 -195 222 -241 41 -46 107 -120 147 -165 39 -44 104 -119 144 -166
88 -104 211 -241 384 -425 72 -77 168 -183 214 -235 46 -52 108 -117 139 -143
31 -26 85 -74 121 -106 36 -32 83 -74 105 -92 22 -19 42 -36 45 -39 22 -23
284 -233 311 -249 45 -28 53 -27 43 7 -5 15 -9 225 -9 467 0 242 -1 872 -1
1400 -1 528 -1 994 0 1035 l1 75 -70 35 c-69 35 -189 91 -315 148 -36 16 -105
49 -155 72 -49 23 -164 77 -255 120 -91 42 -210 101 -265 130 -134 71 -219
116 -410 215 -88 45 -176 92 -195 104 -35 21 -52 22 -177 14z m177 -44 c35
-22 366 -196 640 -337 80 -41 192 -96 250 -122 58 -27 159 -74 225 -105 66
-31 145 -67 175 -80 30 -13 121 -55 202 -93 l146 -70 2 -1158 c1 -638 0 -1220
-2 -1294 -2 -74 -3 -215 -3 -312 1 -98 -2 -178 -6 -178 -7 0 -199 161 -274
228 -16 15 -48 41 -70 57 -22 17 -49 40 -60 52 -11 12 -60 56 -109 97 -86 73
-155 143 -262 268 -27 31 -128 141 -224 245 -96 103 -188 203 -205 222 -16 18
-68 77 -115 131 -248 283 -387 438 -497 557 -68 72 -123 135 -123 140 0 5 20
30 45 56 l45 48 2 407 c0 224 2 412 3 417 2 6 3 195 4 422 l1 412 28 4 c79 12
148 7 182 -14z"/>
<path d="M7706 14663 c-25 -38 -77 -113 -116 -168 -179 -255 -295 -435 -316
-490 -12 -33 -43 -124 -68 -201 l-46 -142 2 -133 3 -134 35 -6 c19 -3 62 -15
95 -25 56 -18 95 -19 580 -18 543 1 802 12 870 38 22 9 59 20 83 26 24 6 45
17 48 24 3 8 -12 42 -34 77 -31 52 -50 71 -102 101 -34 20 -67 41 -73 47 -6 6
-7 32 -2 66 5 41 14 65 35 88 24 28 44 80 67 173 4 18 -12 31 -114 91 -110 66
-194 114 -296 172 -56 31 -261 152 -266 157 -2 2 8 22 23 44 14 22 26 45 26
52 0 18 -348 228 -378 228 -6 0 -31 -30 -56 -67z m176 -30 c62 -36 137 -79
165 -95 29 -16 55 -33 58 -38 3 -5 -7 -28 -22 -51 l-27 -42 31 -26 c18 -15
101 -66 185 -114 84 -48 164 -94 178 -102 14 -8 68 -39 120 -68 192 -109 182
-99 155 -164 -8 -19 -15 -42 -15 -50 0 -8 -14 -32 -32 -54 -26 -32 -34 -53
-39 -102 -4 -39 -2 -67 5 -76 6 -8 41 -34 78 -57 67 -43 137 -129 120 -146 -5
-5 -46 -19 -93 -32 -74 -22 -118 -26 -372 -36 -348 -14 -867 -14 -997 -1 -52
6 -115 17 -140 24 l-45 14 -3 121 c-3 131 -6 117 85 397 32 96 49 129 140 263
57 85 123 179 147 211 24 31 78 109 121 174 42 64 79 117 80 117 2 0 55 -30
117 -67z"/>
<path d="M5356 13618 c-2 -7 -15 -51 -27 -98 -26 -95 -155 -362 -298 -620
-128 -230 -450 -873 -504 -1005 -24 -60 -73 -195 -108 -300 l-64 -190 0 -222
c0 -122 4 -225 8 -229 13 -14 964 -18 972 -4 4 6 9 88 11 182 2 95 7 175 11
179 5 5 8 -76 8 -179 l0 -187 639 -3 c352 -1 643 1 647 5 4 5 10 59 13 121 4
62 10 120 13 130 3 9 29 53 58 97 46 71 105 174 190 330 15 28 43 75 61 106
19 31 61 107 94 169 l60 114 0 453 c0 430 -1 453 -19 462 -30 16 -1712 15
-1733 -1 -9 -7 -19 -31 -22 -53 -2 -22 -2 59 0 180 3 121 7 234 8 250 2 17 7
96 11 178 5 130 4 147 -10 147 -8 0 -17 -6 -19 -12z m-5 -296 c-24 -369 -26
-449 -15 -476 5 -14 4 -17 -4 -12 -7 4 -12 4 -13 -1 -6 -90 -5 -606 1 -713 9
-138 13 -609 7 -677 -2 -18 -4 -133 -5 -254 l-2 -221 -447 5 c-247 4 -459 7
-471 7 l-24 0 4 218 4 217 66 190 c36 105 83 233 104 285 46 113 343 710 445
895 98 179 294 561 313 610 8 22 20 60 27 85 19 73 22 29 10 -158z m1762 -439
c3 -16 6 -212 6 -438 l1 -410 -91 -170 c-50 -93 -116 -213 -147 -265 -31 -52
-69 -120 -85 -150 -17 -30 -46 -80 -67 -110 -72 -107 -90 -150 -90 -216 0 -34
-3 -82 -6 -108 l-7 -46 -616 2 -616 3 1 65 c5 353 5 1080 0 1089 -7 11 -7 575
-1 636 2 17 4 56 4 88 l1 57 854 0 854 0 5 -27z m-1746 -75 c-3 -8 -6 -5 -6 6
-1 11 2 17 5 13 3 -3 4 -12 1 -19z m-7 -353 c0 -197 -4 -315 -10 -315 -10 0
-20 577 -10 587 5 4 6 8 9 33 0 6 3 10 6 10 3 0 5 -142 5 -315z m18 -735 c2
-259 0 -380 -7 -385 -8 -4 -11 107 -11 367 0 205 -3 384 -6 398 -6 21 -5 23 7
12 11 -11 15 -85 17 -392z"/>
<path d="M6435 13453 c-33 -14 -114 -45 -180 -68 -290 -104 -351 -128 -367
-146 -9 -11 -15 -26 -12 -33 7 -19 -15 -33 -67 -40 -26 -4 -82 -18 -125 -31
-84 -26 -153 -32 -171 -14 -5 5 -37 9 -69 7 l-59 -3 -3 -82 c-2 -71 -1 -82 15
-87 35 -10 1718 -4 1731 7 9 7 12 62 12 213 l0 204 -88 44 -87 44 -235 5 -235
6 -60 -26z m590 -46 c44 -22 82 -43 85 -47 3 -5 5 -91 4 -192 l0 -183 -855 0
-854 0 0 60 0 60 50 -3 c28 -2 64 -8 80 -14 23 -8 45 -6 90 6 33 9 98 25 145
37 121 30 130 34 130 64 0 32 -14 26 410 182 52 19 124 46 160 59 63 24 70 24
270 18 l205 -7 80 -40z"/>
<path d="M9090 13429 c-25 -4 -71 -8 -102 -8 -63 -1 -73 -14 -45 -56 8 -11 46
-81 84 -155 115 -219 161 -300 190 -338 38 -49 147 -208 303 -442 205 -309
194 -295 257 -330 32 -18 126 -74 208 -124 83 -51 184 -112 225 -136 41 -25
112 -68 158 -96 l83 -52 937 5 c805 4 938 7 947 19 6 8 43 61 82 117 131 184
205 292 210 303 4 12 -186 231 -357 409 -58 61 -123 130 -144 155 -36 41 -72
81 -231 260 -27 31 -93 105 -145 165 -167 191 -255 288 -272 299 -14 8 -23 5
-45 -16 -15 -14 -89 -71 -163 -127 l-135 -100 -676 4 -676 4 -122 61 c-67 33
-123 60 -126 60 -3 0 -44 18 -92 41 -188 88 -238 99 -353 78z m186 -35 c72
-27 104 -41 304 -137 69 -32 144 -68 168 -78 41 -18 80 -19 722 -19 l678 0 80
58 c44 31 95 69 113 84 19 15 56 44 83 64 l48 36 53 -59 c74 -83 226 -254 255
-289 130 -152 285 -325 455 -509 201 -217 248 -267 308 -337 l58 -67 -31 -43
c-17 -24 -46 -65 -65 -93 -19 -27 -71 -103 -116 -167 l-81 -118 -927 0 -927 0
-85 53 c-90 56 -221 136 -292 177 -24 14 -111 66 -194 115 -150 90 -151 90
-199 167 -27 43 -87 134 -134 202 -47 69 -114 169 -150 222 -36 53 -94 138
-130 190 -85 123 -139 216 -240 414 -19 36 -42 77 -52 92 -24 35 -23 38 15 38
17 1 59 7 92 14 88 20 115 19 191 -10z"/>
<path d="M8780 13374 c-61 -21 -106 -27 -240 -34 -310 -16 -465 -21 -705 -21
-312 -1 -482 8 -577 33 -43 10 -82 16 -88 13 -11 -7 -15 -621 -4 -649 5 -14
47 -16 370 -16 l364 0 0 -125 0 -126 484 3 c266 2 487 6 490 9 4 3 8 109 11
235 2 126 4 235 5 242 0 9 31 12 120 12 73 0 120 4 120 10 0 5 -34 74 -75 152
-42 79 -92 176 -113 215 -43 85 -46 86 -162 47z m161 -99 c76 -138 149 -283
149 -295 0 -6 -4 -9 -8 -6 -11 6 -210 11 -216 5 -3 -2 -7 -110 -10 -239 -3
-129 -5 -241 -6 -247 0 -10 -99 -13 -460 -13 l-460 0 0 114 c0 81 -4 117 -12
123 -7 4 -168 9 -358 11 -190 2 -351 5 -357 7 -10 3 -13 73 -13 305 l0 300 28
-6 c15 -3 43 -10 62 -15 90 -24 446 -30 960 -16 376 10 449 16 534 43 108 35
110 33 167 -71z"/>
<path d="M2050 13313 c-8 -1 -55 -5 -104 -8 l-88 -7 4 -76 c3 -42 0 -93 -5
-112 -6 -19 -11 -37 -12 -40 -9 -42 -34 -92 -60 -120 -32 -34 -34 -39 -40
-140 l-7 -105 -99 -49 c-71 -35 -99 -54 -99 -67 0 -10 -4 -21 -10 -24 -5 -3
-10 -18 -10 -33 0 -48 -13 -56 -95 -60 -72 -4 -77 -6 -87 -31 -7 -18 -8 -154
-2 -436 10 -456 10 -728 -1 -1132 -4 -150 -5 -273 -3 -273 18 0 122 37 162 57
104 53 183 113 296 226 l78 77 282 0 282 0 70 31 c39 17 92 37 118 45 26 8 58
22 71 32 13 10 44 26 69 36 56 22 120 52 235 107 79 39 98 44 171 47 81 4 83
3 116 -28 18 -18 46 -39 61 -46 15 -8 58 -34 95 -58 78 -51 136 -70 164 -55
11 6 28 31 39 57 11 26 29 64 40 84 22 40 22 36 -18 107 -1 2 -23 -2 -48 -9
-37 -10 -51 -10 -77 1 -18 7 -42 14 -53 15 -11 1 -65 19 -120 39 -55 21 -147
49 -204 64 -66 18 -108 34 -117 46 -9 12 -14 47 -14 99 0 73 -11 164 -29 226
-5 20 -20 29 -76 47 -39 13 -115 28 -170 33 -119 13 -193 25 -201 33 -4 3 3
25 14 49 102 215 132 285 131 307 -1 14 2 96 6 181 5 85 9 182 9 215 1 58 0
60 -24 58 -14 -2 -95 -9 -179 -17 -85 -8 -159 -13 -163 -10 -4 3 -8 25 -8 49
0 35 5 47 21 55 11 7 27 9 35 6 8 -3 23 3 33 13 10 10 39 21 65 25 39 6 47 11
52 34 3 15 18 62 35 105 16 43 29 82 29 87 0 5 -21 16 -47 23 -47 14 -48 15
-55 60 -3 25 -9 50 -12 55 -3 5 -45 12 -92 14 -84 4 -88 6 -117 39 -29 32 -36
34 -126 44 -53 6 -103 9 -111 8z m128 -32 c40 -6 61 -15 87 -41 35 -34 84 -48
171 -49 38 -1 42 -3 48 -32 3 -17 6 -42 6 -55 0 -22 5 -25 63 -38 22 -5 27
-11 22 -24 -4 -9 -19 -50 -34 -91 l-26 -74 -54 -18 c-29 -9 -67 -20 -84 -23
-50 -10 -57 -22 -57 -96 0 -74 8 -83 68 -75 55 8 246 25 275 25 l30 0 -7 -142
c-14 -286 -19 -316 -58 -398 -98 -206 -118 -249 -118 -257 0 -6 71 -18 158
-27 127 -14 289 -47 311 -63 7 -5 30 -219 30 -279 1 -64 20 -87 81 -103 110
-29 152 -42 260 -79 186 -64 225 -73 255 -62 38 15 44 13 55 -16 8 -20 5 -32
-15 -62 -14 -20 -30 -54 -36 -74 -15 -57 -44 -51 -172 29 -37 24 -71 43 -76
43 -5 0 -25 15 -45 34 -55 54 -69 59 -159 51 -82 -8 -85 -9 -343 -131 -39 -19
-75 -34 -81 -34 -6 0 -31 -12 -57 -26 -25 -14 -70 -35 -99 -46 -157 -60 -133
-57 -441 -61 -278 -4 -290 -5 -305 -24 -9 -12 -28 -37 -43 -56 -52 -67 -237
-200 -338 -242 -98 -41 -91 -59 -85 218 9 401 9 530 0 1054 l-8 501 44 6 c24
3 64 7 89 9 40 2 45 5 48 27 1 14 7 44 13 66 10 39 16 44 97 85 127 64 122 56
122 167 l0 94 38 43 c49 56 81 155 85 260 2 75 3 80 27 86 34 9 192 9 258 0z"/>
<path d="M8917 12928 c-15 -12 -17 -55 -21 -473 -2 -253 -7 -693 -11 -979 l-8
-518 689 4 c490 4 689 8 692 16 2 6 -12 35 -30 64 -42 67 -61 100 -94 163 -14
28 -38 70 -54 95 -49 75 -187 372 -220 470 -4 14 -24 58 -44 98 -20 40 -36 74
-36 77 0 2 -20 47 -44 98 -39 84 -209 345 -484 744 -42 61 -81 118 -87 127
-14 20 -223 32 -248 14z m206 -35 c22 -4 40 -22 73 -71 24 -37 75 -112 113
-167 179 -255 380 -566 401 -620 13 -33 29 -69 36 -80 6 -11 40 -85 74 -165
110 -257 122 -284 168 -375 25 -49 62 -119 83 -154 22 -34 39 -65 39 -68 0 -2
25 -47 56 -99 31 -53 54 -97 52 -100 -3 -3 -867 -6 -1281 -4 l-38 0 5 53 c3
28 8 270 11 537 9 865 17 1315 22 1323 5 8 127 2 186 -10z"/>
<path d="M4067 12672 c-21 -4 -30 -36 -23 -78 6 -29 0 -43 -44 -106 -28 -40
-71 -98 -95 -128 l-45 -55 5 -70 c8 -98 25 -172 45 -190 9 -8 33 -17 55 -21
69 -11 80 -19 103 -79 30 -78 28 -98 -20 -195 -22 -47 -55 -120 -72 -162 -24
-57 -41 -85 -70 -107 -21 -17 -43 -31 -49 -31 -8 0 -128 -83 -161 -111 -6 -5
-2 -25 9 -49 l18 -40 -31 -62 c-48 -99 -59 -130 -60 -174 -1 -34 2 -43 23 -52
16 -7 132 -12 342 -12 175 -1 323 -1 330 -1 9 1 12 57 12 227 0 250 -3 232 93
519 63 187 120 316 285 645 84 168 153 311 153 317 0 10 -91 13 -393 15 -217
2 -401 2 -410 0z m763 -33 c0 -6 -62 -135 -137 -287 -143 -287 -213 -437 -213
-453 0 -6 -8 -29 -19 -52 -27 -60 -57 -144 -104 -287 l-41 -125 -4 -227 c-2
-166 -7 -228 -15 -229 -35 -4 -623 4 -630 8 -24 15 23 153 78 228 12 18 12 25
-6 65 -19 42 -19 46 -4 55 10 6 34 23 54 39 20 15 57 38 82 51 68 35 104 74
124 135 10 30 42 105 72 165 62 126 64 152 17 249 -27 53 -29 55 -91 72 -40
11 -68 24 -74 36 -6 11 -16 62 -22 113 -10 92 -10 94 15 132 14 21 38 52 54
70 16 18 48 59 72 92 38 53 42 65 36 96 -13 69 -35 65 381 65 259 0 375 -3
375 -11z"/>
<path d="M7166 12664 c-4 -9 -6 -161 -6 -338 l1 -321 -78 -145 c-43 -80 -97
-176 -119 -215 -23 -38 -69 -119 -104 -180 -35 -60 -87 -148 -116 -195 l-52
-85 -6 -124 -6 -124 582 6 c320 4 585 10 589 14 4 5 10 348 14 763 3 415 7
800 8 855 l2 100 -351 3 c-320 2 -352 1 -358 -14z m678 -397 c-2 -210 -6 -583
-7 -830 -2 -246 -6 -449 -9 -452 -2 -3 -256 -8 -562 -12 l-558 -6 7 104 c7
103 8 105 62 199 162 277 194 332 241 415 27 50 78 141 111 203 l61 113 0 324
c0 206 4 325 10 327 5 2 153 2 329 0 l319 -3 -4 -382z"/>
<path d="M7935 12430 c-38 -5 -40 -7 -42 -40 -6 -122 -6 -1420 1 -1427 8 -8
918 -5 948 3 16 5 17 37 19 412 0 224 1 430 1 459 1 29 5 50 9 47 5 -3 9 0 9
5 0 6 -4 11 -10 11 -5 0 -10 5 -10 11 0 5 3 8 8 6 4 -3 7 109 7 249 l0 255
-25 6 c-29 8 -857 10 -915 3z m903 -725 c-2 -388 -6 -707 -9 -709 -7 -7 -884
-18 -900 -11 -16 6 -17 63 -12 703 2 383 6 703 8 710 4 9 104 12 461 12 l457
0 -5 -705z"/>
<path d="M12575 12023 c-37 -54 -98 -143 -136 -198 -39 -55 -76 -109 -84 -120
-18 -26 -24 -201 -25 -674 0 -206 -2 -372 -4 -370 -10 9 -14 804 -5 822 6 10
6 17 1 17 -6 0 -9 14 -8 30 0 17 4 30 9 30 4 0 4 12 1 27 -4 14 -7 38 -8 52
l-1 26 -934 2 -934 2 -61 39 c-66 42 -196 121 -263 159 -23 13 -115 68 -205
122 -89 55 -165 95 -166 90 -2 -6 29 -83 68 -172 40 -89 84 -189 97 -222 54
-126 143 -314 172 -361 17 -27 49 -83 71 -124 22 -41 62 -112 89 -158 47 -80
231 -474 390 -832 23 -52 59 -129 79 -170 l37 -75 605 2 c753 2 968 4 953 10
-10 3 -13 46 -13 166 0 88 3 157 7 154 4 -4 8 -74 11 -155 3 -106 8 -151 17
-161 12 -12 75 -14 382 -12 202 2 400 4 438 6 39 2 252 3 474 4 l404 1 -6 108
c-4 59 -11 133 -17 164 -6 32 -15 90 -20 130 -17 149 -52 376 -71 471 -16 80
-28 110 -64 167 -25 39 -45 72 -45 75 0 2 -22 37 -48 77 -27 40 -68 106 -92
147 -40 67 -53 80 -135 133 -49 32 -103 68 -119 81 -16 12 -48 29 -71 38 -34
13 -194 124 -215 149 -3 3 -61 53 -130 110 -69 58 -130 109 -136 115 -6 5 -37
33 -69 60 -33 28 -76 65 -96 83 -20 17 -41 32 -47 32 -6 0 -41 -44 -77 -97z
m100 58 c6 -11 214 -195 285 -253 25 -20 92 -75 149 -123 121 -100 177 -140
225 -160 19 -8 86 -48 148 -90 125 -83 128 -87 299 -370 39 -66 77 -127 84
-135 7 -8 17 -46 24 -85 6 -38 17 -106 25 -150 8 -44 22 -141 31 -215 9 -74
25 -191 35 -260 10 -69 20 -150 22 -180 l3 -55 -825 0 -825 0 3 460 c1 253 5
631 8 840 6 374 7 380 29 410 26 35 138 198 207 303 47 70 61 82 73 63z
m-2704 -153 c93 -57 195 -118 227 -137 31 -18 99 -60 150 -92 l92 -59 926 0
926 0 -7 -812 c-4 -485 -11 -817 -17 -823 -6 -6 -270 -10 -754 -10 l-745 0
-55 120 c-31 66 -64 138 -74 160 -10 22 -62 137 -115 255 -119 262 -258 548
-294 599 -47 69 -178 315 -238 451 -41 91 -80 179 -87 195 -8 17 -31 71 -52
120 -21 50 -45 100 -52 113 -8 12 -11 22 -7 22 3 0 83 -46 176 -102z m2356
-1325 c-3 -10 -5 -2 -5 17 0 19 2 27 5 18 2 -10 2 -26 0 -35z m0 -55 c-3 -7
-5 -2 -5 12 0 14 2 19 5 13 2 -7 2 -19 0 -25z"/>
<path d="M3136 11239 c-37 -5 -80 -17 -95 -27 -14 -10 -55 -31 -91 -46 -91
-39 -159 -71 -277 -127 -56 -27 -108 -49 -117 -49 -8 0 -36 -11 -62 -25 -47
-25 -47 -25 -332 -25 l-284 0 -34 -37 c-19 -20 -34 -40 -34 -44 0 -12 -220
-175 -285 -210 -22 -12 -74 -34 -115 -49 l-75 -26 -9 -55 c-13 -85 -19 -3780
-6 -3793 8 -8 228 -11 749 -11 l737 0 -4 76 c-4 72 -2 84 47 217 42 116 68
167 143 284 168 262 158 242 158 330 0 65 5 87 30 140 29 62 67 154 97 233 15
41 32 223 33 353 0 70 1 73 27 83 34 13 43 26 43 65 0 37 -16 54 -52 54 -24 0
-29 5 -38 43 -20 77 -22 82 -41 102 -25 28 -59 105 -59 137 0 35 -33 65 -85
79 -56 15 -107 43 -200 108 l-80 56 -255 3 c-247 3 -256 4 -305 28 -73 37 -86
48 -96 91 -17 73 -10 145 16 188 50 80 79 75 -409 75 -279 0 -437 4 -441 10
-4 7 150 10 454 10 442 0 461 -1 461 -18 0 -11 -15 -39 -32 -63 -31 -41 -33
-49 -33 -126 1 -95 11 -112 90 -149 48 -23 58 -24 307 -24 152 0 259 -4 263
-10 17 -27 172 -123 253 -156 l93 -38 71 25 c110 38 286 145 343 209 17 18 42
46 56 61 37 39 84 100 98 126 14 28 17 50 36 298 8 110 20 254 26 320 25 270
34 216 -82 473 -56 125 -115 263 -130 307 -25 70 -27 85 -17 120 6 22 21 50
34 62 29 27 30 39 4 55 -13 8 -20 24 -20 44 0 39 -12 49 -72 61 -49 11 -207
103 -271 160 -20 18 -43 32 -50 32 -6 -1 -43 -5 -81 -10z m110 -40 c10 -12 48
-38 84 -59 36 -21 84 -52 108 -69 23 -18 57 -34 75 -37 82 -14 80 -12 74 -49
-4 -25 -1 -37 10 -44 14 -7 13 -11 -5 -29 -31 -31 -38 -101 -17 -173 22 -82
109 -287 193 -456 51 -104 49 -71 23 -373 -6 -69 -18 -219 -26 -333 -11 -160
-19 -219 -34 -250 -25 -55 -180 -215 -255 -264 -33 -21 -73 -48 -90 -60 -17
-12 -66 -34 -108 -48 -69 -24 -82 -25 -115 -15 -111 36 -208 89 -283 156 -24
21 -33 22 -296 26 -245 4 -274 6 -304 24 -54 31 -70 61 -71 132 -1 52 3 68 24
95 38 50 58 104 44 115 -12 10 -413 21 -761 22 l-178 0 6 483 c3 265 8 501 12
524 l6 41 74 25 c41 14 100 40 130 59 98 59 252 182 284 226 29 40 33 42 83
43 415 5 543 11 572 29 17 9 48 23 70 30 22 7 81 31 130 55 50 24 115 54 145
68 158 71 196 89 210 102 13 12 37 16 141 23 15 1 34 -7 45 -19z m-1083 -1769
c16 0 15 -5 -8 -44 -25 -42 -25 -47 -17 -140 11 -110 14 -115 120 -166 l62
-30 247 0 246 0 89 -61 c49 -34 126 -75 171 -93 80 -31 82 -33 91 -71 11 -55
35 -110 63 -147 12 -17 26 -48 29 -67 11 -59 31 -89 61 -93 42 -5 45 -45 5
-59 l-29 -10 -13 -202 -13 -202 -70 -170 c-65 -159 -70 -175 -71 -250 -1 -88
9 -68 -138 -288 -32 -48 -58 -89 -58 -92 0 -2 -13 -25 -30 -52 -16 -26 -52
-111 -80 -188 -46 -124 -51 -147 -48 -202 l4 -63 -718 0 -718 0 0 1343 c0 739
2 1346 5 1349 3 3 184 3 403 2 218 -2 405 -4 415 -4z"/>
<path d="M8105 10932 c-110 -1 -203 -6 -208 -11 -17 -17 -5 -1935 12 -1953 9
-9 581 -21 1061 -22 l405 -1 3 998 2 997 -537 -2 c-296 -2 -628 -4 -738 -6z
m1233 -20 l23 -2 -6 -967 c-4 -533 -9 -970 -12 -973 -6 -6 -177 -5 -860 5
l-552 8 -3 126 c-2 69 -5 397 -6 728 -2 331 -5 695 -7 810 -3 114 -2 220 1
235 l6 28 541 2 c532 3 830 3 875 0z"/>
<path d="M9415 10929 c-4 -6 -7 -167 -6 -357 0 -191 1 -519 1 -729 l0 -383
775 0 c653 0 775 2 775 14 0 7 -33 81 -74 162 -40 82 -88 181 -106 219 -17 39
-45 97 -60 130 -16 33 -56 123 -90 200 -34 77 -77 174 -97 215 -51 109 -63
136 -152 330 -44 96 -87 182 -95 192 -15 17 -45 18 -440 18 -293 0 -427 -3
-431 -11z m897 -117 c133 -284 147 -315 181 -392 13 -30 36 -80 50 -110 14
-30 45 -100 70 -155 122 -268 189 -413 204 -440 22 -41 113 -225 113 -231 0
-2 -338 -4 -752 -4 l-751 0 6 713 c4 391 7 713 7 714 0 4 185 8 498 10 l324 2
50 -107z"/>
<path d="M3658 10904 c-15 -16 -32 -42 -37 -57 -13 -34 -14 -89 -3 -102 5 -6
19 -39 32 -75 26 -76 89 -220 162 -372 l52 -107 -13 -138 c-15 -168 -28 -332
-37 -475 l-7 -108 255 0 c192 0 258 3 266 13 11 13 14 1408 2 1426 -4 7 -118
13 -326 17 l-319 6 -27 -28z m649 -706 c2 -656 2 -698 -15 -698 -9 0 -114 -3
-233 -7 -125 -3 -218 -2 -221 3 -3 5 3 104 13 219 10 116 24 272 30 347 l11
137 -55 113 c-133 273 -213 474 -202 508 4 11 18 34 32 50 l25 30 307 -2 306
-3 2 -697z"/>
<path d="M4364 10915 c-2 -5 -3 -332 -2 -725 l3 -715 490 0 490 0 -4 720 c-2
396 -4 721 -5 722 -1 1 -219 4 -485 5 -316 2 -485 0 -487 -7z m954 -717 l2
-698 -470 0 -470 0 0 700 0 700 468 -2 467 -3 3 -697z"/>
<path d="M6899 10922 l-217 -2 -6 -33 c-12 -69 -10 -148 5 -157 12 -8 14 -51
12 -252 -2 -134 -3 -286 -3 -338 0 -147 11 -1145 13 -1146 1 -1 81 -7 177 -14
96 -8 358 -14 583 -14 l407 -1 1 280 c1 401 -12 1658 -17 1673 -4 14 -156 14
-955 4z m941 -774 c1 -414 3 -845 4 -958 l1 -205 -240 -3 c-132 -2 -323 2
-425 8 -102 6 -243 14 -315 17 -71 3 -133 8 -138 12 -4 4 -8 390 -8 859 -1
739 -3 853 -16 864 -20 16 -9 128 14 145 12 9 150 12 568 13 l553 0 2 -752z"/>
<path d="M5365 10899 c-9 -27 -2 -1407 6 -1421 5 -8 200 -11 656 -12 l648 -1
0 150 c0 83 -4 240 -10 350 -11 224 -10 267 5 295 6 11 10 105 10 230 0 192
-2 214 -19 236 -16 20 -18 36 -13 109 l4 85 -640 0 -641 0 -6 -21z m1247 -6
c15 -4 17 -13 11 -78 -4 -59 -2 -80 10 -99 13 -20 17 -61 19 -233 1 -137 -2
-215 -9 -228 -8 -15 -8 -120 -1 -388 6 -202 8 -370 5 -374 -7 -6 -750 -5
-1017 2 -80 2 -166 4 -192 4 l-48 1 0 693 c0 382 3 697 8 701 7 8 1181 7 1214
-1z"/>
<path d="M13298 9954 c-11 -10 -279 -13 -1325 -13 -1189 -1 -1193 -1 -1193
-21 0 -11 32 -84 71 -163 40 -78 86 -176 104 -217 18 -41 74 -160 125 -265 50
-104 130 -269 177 -365 46 -96 115 -238 153 -315 l68 -140 349 4 c191 2 357 5
368 7 11 3 290 7 620 10 330 3 611 8 625 11 14 3 158 8 320 12 l295 6 -2 150
c-1 83 -4 400 -8 705 -3 305 -8 565 -11 578 l-5 23 -364 -2 c-201 -1 -366 -3
-367 -5z m714 -101 c2 -43 5 -242 6 -443 1 -201 5 -481 8 -622 l7 -257 -34 -5
c-19 -3 -225 -8 -459 -11 -234 -3 -470 -7 -525 -10 -55 -2 -298 -7 -540 -11
-242 -4 -552 -9 -690 -13 -137 -3 -260 -4 -273 -2 -14 2 -28 15 -34 30 -6 14
-51 107 -99 207 -107 219 -313 650 -381 794 -47 102 -53 113 -76 155 -32 58
-112 237 -108 243 2 4 573 9 1268 11 694 1 1264 4 1265 5 1 1 151 3 332 5
l329 3 4 -79z"/>
<path d="M3804 9423 c-22 -102 -38 -136 -93 -205 -74 -92 -116 -131 -216 -200
-95 -65 -181 -111 -213 -115 -13 -1 -35 -9 -49 -19 -23 -14 -25 -20 -19 -63 3
-25 15 -59 27 -74 29 -40 69 -128 69 -153 0 -24 17 -34 61 -34 l29 0 0 -70 c0
-68 -1 -70 -24 -70 -14 0 -28 -6 -33 -12 -4 -7 -13 -98 -19 -203 -10 -173 -13
-195 -37 -247 -15 -31 -27 -59 -27 -62 0 -3 -20 -53 -45 -111 -42 -97 -46
-113 -44 -180 l2 -73 -75 -114 c-190 -290 -188 -286 -250 -475 -43 -132 -38
-196 19 -273 75 -101 133 -153 221 -195 76 -36 100 -55 70 -55 -7 0 -53 22
-103 49 -89 48 -95 53 -216 199 l-19 22 -752 -2 -753 -3 0 -875 0 -875 1002 0
c662 0 1003 3 1003 10 4 63 -2 1380 -6 1386 -2 4 -31 23 -64 41 -33 18 -60 36
-60 40 0 12 6 10 81 -28 70 -35 74 -35 203 -37 158 -2 363 18 425 42 69 27
275 165 306 205 27 35 103 171 157 279 l28 57 464 0 c257 0 467 4 470 9 5 8
11 589 20 1985 2 270 1 498 -2 508 -4 17 -40 18 -768 18 l-764 0 -6 -27z
m1512 -720 c-4 -395 -9 -949 -12 -1230 l-6 -513 -458 0 c-354 0 -460 -3 -468
-12 -5 -7 -44 -78 -85 -158 -41 -80 -93 -165 -115 -190 -22 -25 -76 -67 -120
-93 -45 -26 -84 -53 -88 -58 -15 -25 -100 -49 -216 -61 -161 -17 -410 -17
-430 -1 -8 7 -83 47 -166 88 -142 71 -155 79 -212 145 -33 39 -60 75 -60 80 0
5 -7 16 -16 25 -23 22 -22 137 1 191 9 21 25 66 36 98 11 33 32 82 46 110 26
53 34 64 171 276 l82 125 0 80 c0 67 5 90 29 141 16 33 32 72 36 85 4 13 21
55 37 93 36 82 47 152 48 306 2 148 5 160 40 160 32 0 38 20 39 121 1 63 -8
76 -57 81 -30 3 -35 8 -51 53 -9 28 -32 72 -49 99 -22 34 -32 62 -32 88 l0 37
68 20 c45 14 107 47 189 101 100 65 138 98 204 173 84 96 103 130 120 210 l11
47 745 0 744 0 -5 -717z m-2479 -2070 c109 -139 101 -133 279 -223 93 -47 172
-89 176 -95 4 -5 8 -312 8 -680 l0 -670 -980 -1 -980 -1 0 847 c0 466 3 849 6
853 3 3 334 6 735 6 l729 0 27 -36z"/>
<path d="M5372 9433 c-6 -11 -11 -519 -13 -1258 l-4 -1240 645 0 645 0 2 35
c1 19 7 166 14 325 6 160 12 313 14 340 1 28 4 204 5 393 1 188 5 342 10 342
5 0 9 -91 10 -202 0 -111 2 -204 5 -206 8 -8 1160 -1 1168 7 9 9 6 946 -3 954
-3 2 -144 8 -315 11 -170 4 -404 13 -520 20 -115 7 -237 12 -270 12 l-60 -1 2
-55 c1 -30 5 -84 9 -120 3 -36 2 -126 -2 -200 l-9 -135 -8 205 c-4 113 -10
331 -13 485 -2 154 -9 284 -14 289 -5 5 -297 10 -649 13 -607 4 -640 3 -649
-14z m1278 -272 c0 -155 4 -271 10 -287 7 -19 7 -210 0 -618 -6 -325 -13 -601
-15 -614 -2 -13 -7 -123 -11 -245 -4 -122 -9 -271 -13 -332 l-6 -110 -619 0
-619 0 8 1145 c6 969 9 1263 14 1313 1 4 282 7 626 7 l625 0 0 -259z m360
-235 c102 -7 329 -14 505 -15 176 -1 323 -5 327 -9 11 -11 11 -903 0 -914 -4
-4 -258 -7 -563 -6 l-554 3 4 175 c2 96 5 182 6 190 2 8 6 121 10 250 6 207 5
240 -10 274 -31 74 -35 73 275 52z"/>
<path d="M9414 9429 c-4 -7 -6 -334 -6 -728 1 -394 2 -721 2 -728 0 -8 21 -13
58 -15 l57 -3 5 -125 5 -125 475 -6 c261 -3 515 -7 563 -8 49 0 86 -5 83 -10
-3 -5 -32 -7 -63 -6 -32 2 -286 3 -565 4 l-508 1 0 124 c0 138 1 136 -77 136
l-33 0 -1 -112 c-1 -82 0 -1313 1 -1382 0 -5 46 -6 108 -2 59 4 199 11 312 16
113 5 261 14 330 19 69 5 260 12 425 15 165 4 419 9 565 12 599 14 1053 10
1215 -10 115 -14 175 -17 175 -10 0 14 -28 51 -135 183 -220 270 -235 293
-355 550 -67 144 -256 536 -323 671 l-22 45 -225 -1 c-401 -1 -545 -4 -558
-13 -10 -6 -13 -39 -13 -130 l1 -121 -120 0 c-66 0 -120 4 -120 9 0 5 43 7 96
5 62 -3 102 0 110 7 11 9 13 39 9 130 -3 65 -1 120 3 122 4 3 183 8 397 12
215 4 393 10 398 14 4 4 -4 27 -18 52 -14 24 -28 53 -32 64 -4 11 -48 103 -98
205 -51 102 -125 253 -164 335 -40 83 -92 191 -116 240 -107 223 -194 404
-214 449 -12 26 -33 65 -46 87 l-25 38 -774 1 c-588 0 -776 -2 -782 -11z
m1562 -49 c8 -14 88 -178 178 -365 90 -187 212 -439 271 -560 160 -328 225
-463 225 -467 0 -2 -78 -5 -172 -6 -249 -3 -602 -14 -610 -19 -5 -2 -8 -59 -8
-126 l0 -122 -637 3 c-351 2 -643 5 -650 7 -9 3 -13 41 -15 127 l-3 123 -60 5
-60 5 -3 704 c-2 557 0 706 10 713 7 4 352 7 766 5 l753 -2 15 -25z m738
-1524 c13 -28 81 -168 151 -311 70 -143 145 -298 167 -345 22 -47 53 -112 68
-145 44 -92 101 -174 223 -323 144 -175 171 -211 165 -218 -3 -3 -55 1 -114 8
-238 27 -2148 6 -2404 -27 -29 -4 -300 -14 -485 -19 l-50 -1 -3 718 -2 717 30
0 30 0 0 -119 c0 -66 4 -122 8 -125 18 -11 176 -15 786 -22 535 -5 640 -4 647
7 5 8 9 67 9 132 l0 117 28 0 c59 0 627 13 629 14 1 1 22 0 48 -2 45 -4 47 -6
69 -56z"/>
<path d="M7908 8918 c-3 -10 -2 -897 1 -945 1 -10 152 -13 720 -13 396 0 726
3 735 6 14 5 16 56 16 469 0 358 -3 465 -12 472 -8 7 -285 13 -734 17 -574 5
-723 3 -726 -6z m1438 -30 c3 -4 8 -207 10 -452 l4 -446 -22 -5 c-13 -3 -333
-4 -713 -3 l-690 3 -3 458 -2 458 704 -4 c388 -1 708 -6 712 -9z"/>
<path d="M13475 8470 c3 -4 -158 -9 -358 -10 -199 -1 -380 -4 -402 -6 -22 -1
-211 -5 -420 -9 -209 -3 -459 -8 -555 -11 -96 -3 -190 -5 -207 -5 -21 0 -33
-5 -33 -14 0 -7 47 -109 104 -227 96 -195 152 -311 376 -773 43 -88 103 -214
135 -280 68 -143 116 -219 225 -351 44 -54 102 -125 128 -157 118 -145 165
-198 223 -253 34 -32 68 -65 75 -71 7 -7 16 -13 21 -13 9 0 55 -49 208 -223
55 -63 111 -122 125 -132 22 -16 74 -77 290 -342 28 -35 64 -70 80 -78 16 -8
58 -35 93 -60 36 -25 68 -45 72 -45 8 0 271 -163 300 -186 11 -9 64 -45 118
-80 100 -67 104 -71 155 -164 l30 -55 212 -3 c238 -3 243 -1 158 60 -49 35
-286 219 -422 328 -74 60 -85 73 -133 167 -40 76 -55 119 -63 173 -10 72 -28
119 -60 155 -22 25 -50 129 -50 184 0 44 43 210 63 245 9 15 12 137 12 441 0
357 3 433 17 505 10 47 24 155 33 240 8 85 23 225 32 310 10 85 18 191 18 235
0 121 -16 499 -22 508 -3 4 -135 7 -294 6 -159 -1 -287 -5 -284 -9z m550 -29
c6 -11 20 -343 20 -476 -1 -122 -76 -812 -92 -838 -3 -5 -5 -198 -4 -428 2
-356 0 -423 -13 -447 -24 -47 -59 -182 -64 -244 -4 -66 27 -189 56 -222 30
-33 38 -55 52 -140 10 -64 23 -101 73 -194 35 -65 72 -122 87 -131 23 -15 358
-274 405 -313 11 -9 31 -26 44 -36 l25 -19 -45 -6 c-24 -3 -98 -5 -164 -4
l-120 2 -51 78 c-49 75 -58 83 -205 180 -85 56 -201 131 -257 167 -325 204
-317 198 -386 291 -73 99 -169 211 -251 294 -44 44 -133 142 -199 217 -65 76
-126 140 -135 143 -27 8 -201 184 -263 265 -32 41 -114 145 -184 230 -116 144
-132 168 -214 335 -123 252 -237 488 -275 570 -18 39 -99 204 -179 369 -80
164 -146 302 -146 307 0 5 33 9 73 10 39 1 99 3 132 5 57 3 706 16 1535 30
206 4 377 8 378 10 10 8 361 3 367 -5z"/>
<path d="M6844 7932 l-141 -3 -7 -187 c-27 -770 -28 -802 -8 -803 58 -2 521 2
822 7 242 5 357 10 362 18 4 6 8 225 8 487 0 447 -1 477 -17 484 -16 6 -661 4
-1019 -3z m1004 -489 l-3 -468 -75 -1 c-41 0 -299 -4 -573 -9 l-499 -8 6 184
c3 101 8 310 11 464 4 154 8 286 10 293 3 9 125 12 565 12 l560 0 -2 -467z"/>
<path d="M7914 7928 c-4 -6 -9 -372 -11 -812 -2 -441 -5 -918 -7 -1061 -1
-143 -1 -266 2 -273 3 -10 18 -12 56 -7 101 12 105 14 127 58 29 57 48 77 74
77 12 0 40 6 61 14 22 7 68 16 103 20 36 4 68 9 73 12 4 3 8 20 8 37 0 56 6
59 124 53 59 -2 110 -7 114 -10 12 -12 65 -5 115 15 29 11 62 25 73 29 12 5
31 29 44 54 14 30 46 66 92 105 69 56 73 59 142 64 39 3 114 2 166 -3 71 -7
96 -6 102 3 12 18 10 1615 -2 1622 -5 3 -333 8 -729 10 -538 3 -722 1 -727 -7z
m1438 -30 c2 -7 3 -38 2 -68 -1 -30 -2 -381 -3 -780 l-1 -725 -164 0 -164 0
-72 -60 c-48 -39 -82 -77 -99 -110 -22 -41 -34 -52 -76 -69 -56 -22 -89 -24
-257 -14 -129 8 -131 7 -142 -54 -7 -38 -20 -48 -64 -48 -15 0 -69 -10 -121
-22 l-93 -23 -29 -57 c-16 -32 -35 -58 -43 -58 -7 0 -34 -3 -59 -6 l-46 -7 3
44 c2 24 4 500 5 1057 l1 1012 709 0 c558 0 710 -3 713 -12z"/>
<path d="M7115 6919 c-71 -4 -196 -7 -277 -8 -129 -1 -148 -3 -157 -18 -13
-26 -9 -1339 4 -1352 8 -8 24 -7 55 2 43 12 45 15 52 59 3 26 9 52 13 58 8 13
121 12 217 -3 37 -6 71 -7 75 -3 4 4 10 35 14 69 3 34 18 101 33 149 l27 87
157 3 157 3 44 -45 c24 -24 60 -70 81 -100 57 -85 56 -84 153 -70 46 6 88 15
94 18 8 5 12 170 13 572 1 311 1 571 1 578 -1 10 -64 12 -313 10 -172 -1 -371
-5 -443 -9z m718 -18 c16 -1 17 -34 17 -551 0 -630 12 -565 -107 -576 l-68 -6
-19 33 c-23 40 -114 159 -136 176 -11 9 -60 13 -170 12 -223 -1 -201 10 -239
-127 -17 -65 -31 -132 -31 -151 l0 -33 -42 6 c-24 3 -90 6 -147 7 -114 2 -121
-2 -121 -58 0 -35 -32 -77 -53 -70 -9 3 -13 162 -15 652 -1 357 1 652 5 656 5
4 112 11 238 15 304 9 825 19 850 17 11 -1 28 -2 38 -2z"/>
<path d="M4402 6896 c-5 -6 -32 -55 -61 -110 -75 -140 -136 -231 -175 -261
-18 -14 -35 -25 -38 -25 -3 0 -36 -21 -74 -46 -125 -85 -172 -101 -339 -119
-82 -9 -199 -15 -260 -13 l-110 3 0 -440 c0 -242 4 -446 9 -452 5 -8 5 -13 -1
-13 -10 0 -9 -472 1 -489 5 -7 15 -6 33 2 20 9 27 9 30 0 3 -8 12 -9 29 -3 25
10 269 9 1290 -4 320 -4 584 -4 587 1 11 19 20 575 18 1103 -1 399 1 561 9
550 7 -10 9 -271 8 -835 l-3 -820 180 -5 c170 -6 189 -8 335 -47 131 -34 445
-104 610 -134 25 -5 63 -13 85 -18 22 -6 53 -11 69 -11 l29 0 -7 398 c-5 301
-18 1702 -16 1780 0 9 -134 12 -640 12 l-640 0 -4 -22 c-3 -13 -4 -80 -3 -151
1 -81 -2 -126 -8 -124 -6 2 -11 61 -13 143 -1 76 -6 142 -11 147 -13 13 -909
16 -919 3z m899 -213 c0 -109 2 -209 4 -223 5 -35 7 -1237 2 -1280 -2 -19 -5
-80 -6 -134 l-1 -99 -957 7 c-527 4 -959 9 -961 11 -2 2 -6 303 -9 670 l-6
667 89 -7 c61 -5 124 -2 199 8 61 9 142 19 182 22 69 7 78 11 220 99 137 85
152 97 196 162 26 38 76 120 109 182 l61 112 439 0 438 0 1 -197z m1320 -385
c0 -321 2 -592 4 -603 2 -11 5 -231 5 -490 1 -383 -1 -470 -12 -469 -22 3
-357 72 -473 99 -60 13 -153 34 -205 45 -52 11 -126 29 -165 41 -54 16 -108
22 -235 26 -91 3 -166 6 -166 7 -1 0 2 73 6 161 5 88 6 521 4 963 l-5 802 620
0 621 0 1 -582z"/>
<path d="M11397 6485 c-1 -1 -222 -5 -492 -9 -269 -4 -533 -9 -585 -11 -52 -3
-160 -7 -240 -10 -80 -3 -158 -7 -175 -10 -16 -2 -102 -6 -190 -10 -162 -6
-297 -15 -303 -20 -2 -1 -5 -467 -8 -1035 -4 -803 -2 -1035 7 -1046 10 -12 37
-15 133 -13 226 3 297 23 311 88 7 34 35 61 90 89 27 13 52 38 74 74 19 29 54
77 78 105 43 51 112 186 149 291 10 28 22 52 26 52 4 0 15 -14 23 -30 9 -17
26 -35 38 -39 13 -5 113 -7 222 -5 110 2 396 6 635 9 551 8 570 9 581 26 5 8
9 256 9 554 0 297 1 632 2 745 l3 205 -193 1 c-106 0 -193 0 -195 -1z m354
-755 c-1 -404 -4 -736 -4 -736 -1 -1 -173 -4 -382 -8 -209 -3 -525 -9 -702
-12 l-321 -7 -29 41 c-33 48 -59 53 -74 15 -11 -29 -37 -90 -85 -203 -15 -36
-41 -81 -58 -100 -17 -19 -53 -68 -80 -108 -37 -54 -63 -80 -101 -101 -57 -33
-68 -44 -82 -85 -13 -41 -49 -64 -108 -70 -43 -4 -221 -9 -278 -7 -16 1 -17
55 -15 1024 l3 1022 205 11 c113 6 264 14 335 18 72 3 159 8 195 11 36 2 256
7 490 11 234 4 547 10 695 13 149 3 299 6 335 6 l64 0 -3 -735z"/>
<path d="M11807 6476 c-4 -9 -7 -352 -7 -761 0 -593 2 -745 12 -746 57 -3 344
-8 783 -14 286 -4 540 -9 565 -10 136 -9 356 -15 693 -21 l379 -5 -8 23 c-4
13 -21 46 -39 74 -34 53 -28 48 -415 299 -76 50 -180 115 -230 145 -92 55
-142 107 -323 333 -22 26 -76 85 -120 131 -85 87 -191 206 -240 270 -16 20
-52 55 -80 77 -29 22 -84 72 -123 109 l-71 69 -144 16 c-79 9 -252 19 -385 22
-218 5 -241 4 -247 -11z m657 -36 l100 -12 76 -71 c42 -40 101 -92 132 -117
30 -25 74 -70 96 -101 23 -31 104 -121 179 -201 76 -79 183 -199 238 -267 55
-68 109 -134 120 -147 11 -13 73 -57 137 -97 408 -252 583 -372 617 -421 17
-25 31 -48 31 -51 0 -4 -118 -4 -262 -1 -145 3 -425 8 -623 11 -331 5 -796 16
-837 21 -10 1 -160 2 -334 3 l-315 1 5 493 c3 270 6 598 6 727 1 129 5 239 10
245 11 13 483 2 624 -15z"/>
<path d="M9062 6284 c-13 -3 -32 -13 -41 -22 -10 -9 -46 -43 -80 -74 -33 -32
-61 -66 -61 -76 0 -34 -25 -51 -113 -79 -75 -23 -93 -25 -120 -15 -35 12 -202
20 -213 10 -3 -4 -8 -24 -11 -45 -3 -21 -6 -39 -7 -40 -2 -2 -41 -8 -87 -14
-46 -6 -99 -17 -118 -25 -18 -8 -42 -14 -52 -14 -11 0 -32 -21 -54 -55 -39
-61 -53 -69 -137 -79 -32 -4 -61 -13 -65 -19 -8 -14 -13 -146 -20 -650 l-5
-399 475 6 475 6 48 -86 c26 -47 59 -95 73 -105 15 -11 49 -41 76 -67 28 -26
71 -64 97 -85 46 -37 47 -37 142 -37 81 0 97 3 105 18 11 22 15 1912 3 1930
-9 13 -264 26 -310 16z m285 -37 c2 -3 4 -429 4 -948 l1 -944 -92 -3 -91 -3
-47 38 c-119 93 -197 184 -252 292 l-22 44 -468 -5 c-381 -4 -470 -3 -474 8
-3 7 -3 66 0 131 2 65 7 282 10 483 3 201 7 370 9 376 2 6 32 14 66 18 80 9
88 14 129 75 40 58 75 73 215 92 44 6 87 14 95 19 8 4 17 24 20 45 l5 39 65
-2 c36 -2 88 -8 117 -14 42 -9 59 -8 90 4 21 9 62 21 91 28 54 13 82 38 82 75
0 12 30 49 77 94 l78 73 144 -5 c79 -3 145 -8 148 -10z"/>
<path d="M7239 5942 l-47 -3 -21 -57 c-23 -63 -37 -122 -46 -194 -5 -42 -12
-51 -35 -50 -3 0 -60 3 -127 6 -118 6 -122 6 -137 -16 -9 -12 -16 -34 -16 -49
0 -33 -12 -43 -75 -61 l-50 -14 0 -329 c0 -182 1 -360 3 -397 4 -78 3 -78 147
-102 193 -32 218 -32 296 4 89 41 160 60 227 60 50 0 53 -2 69 -35 9 -19 22
-34 27 -34 23 3 36 -1 36 -11 0 -5 -11 -10 -25 -10 -18 0 -32 11 -50 40 -25
39 -26 40 -73 33 -64 -8 -195 -49 -238 -75 -44 -26 -84 -25 -247 2 -107 18
-166 24 -167 18 -1 -2 -3 -106 -6 -233 -3 -126 -7 -264 -9 -305 -14 -296 -17
-643 -6 -687 8 -30 12 -116 11 -228 l-1 -180 -47 -48 c-26 -27 -71 -66 -99
-89 -29 -22 -53 -46 -53 -52 0 -8 61 -10 217 -8 202 3 220 5 239 23 21 20 31
20 415 13 741 -13 2016 -4 2029 14 3 4 3 322 0 707 l-5 700 -107 1 -108 1 -67
56 c-105 86 -208 197 -238 254 -15 29 -35 55 -45 58 -22 7 -1161 -2 -1168 -10
-3 -3 -12 -5 -21 -5 -14 0 -14 2 -1 10 21 14 -5 13 -31 0 -23 -13 -49 -2 -28
11 8 5 73 9 144 9 72 0 135 4 141 8 8 5 13 160 16 531 l5 523 -41 -5 c-23 -3
-70 -9 -106 -12 l-65 -7 -42 65 c-24 36 -62 86 -85 111 l-43 47 -100 2 c-55 1
-121 1 -146 -1z m271 -71 c26 -28 65 -78 86 -111 45 -70 62 -77 141 -61 31 6
69 11 84 11 25 0 27 -2 23 -37 -2 -21 -5 -244 -8 -496 -3 -253 -6 -460 -8
-462 -2 -1 -73 -5 -158 -8 -85 -4 -165 -9 -177 -13 -18 -5 -26 1 -42 27 -32
54 -39 59 -74 53 -91 -15 -218 -50 -262 -72 -45 -22 -56 -24 -135 -18 -47 4
-125 15 -175 24 l-90 17 -3 381 -3 382 58 14 58 14 11 49 10 50 150 -3 150 -3
12 93 c6 51 19 118 29 148 21 64 23 65 177 69 l99 2 47 -50z m-115 -1201 c8
-16 23 -33 33 -38 9 -4 130 -5 267 -2 138 3 444 7 681 8 l431 3 28 -53 c31
-57 169 -199 264 -273 l59 -45 95 0 95 0 4 -57 c1 -32 5 -340 7 -685 l3 -628
-313 -2 c-546 -3 -1310 -1 -1717 6 l-393 6 -19 -22 c-18 -22 -23 -23 -194 -23
-181 0 -203 5 -156 38 10 7 46 39 80 70 l60 57 0 203 c0 144 -3 206 -12 215
-15 15 -18 142 -8 352 4 85 11 308 15 495 4 187 10 343 14 346 3 4 53 -1 111
-11 206 -35 221 -35 303 1 75 34 186 67 224 68 15 1 28 -9 38 -29z m134 -19
c-15 -5 -22 6 -14 19 6 9 10 9 16 -1 5 -8 4 -15 -2 -18z"/>
<path d="M10229 4864 c-28 -68 -62 -129 -96 -172 -28 -37 -71 -96 -95 -131
-32 -47 -55 -69 -88 -85 -35 -16 -51 -33 -73 -74 -46 -85 -76 -96 -282 -100
-93 -2 -175 -8 -182 -14 -9 -8 -11 -152 -7 -636 4 -345 9 -630 13 -633 5 -5
63 -15 206 -35 153 -21 772 -94 798 -94 18 0 39 -6 46 -13 15 -15 255 -15 327
1 29 6 242 14 514 17 l465 7 50 -51 c28 -28 56 -51 63 -51 7 0 18 14 23 30 6
17 14 30 18 30 4 0 24 -16 44 -37 34 -33 39 -35 64 -24 15 7 54 14 87 17 34 3
94 10 135 15 40 6 148 9 239 7 l166 -3 13 33 c8 18 17 32 21 30 89 -40 102
-42 156 -25 38 12 90 17 185 17 126 0 133 1 138 20 3 12 26 31 52 44 89 46
100 82 43 141 -16 17 -39 45 -50 64 -18 30 -19 37 -8 60 8 14 28 71 46 126 18
55 46 130 62 168 l29 68 -22 31 -22 31 9 421 c8 423 8 804 0 841 -5 19 -14 20
-253 21 -136 1 -473 5 -749 9 -319 5 -503 5 -507 -2 -3 -5 -9 -400 -13 -879
-7 -827 -4 -980 21 -1137 4 -24 2 -26 -13 -18 -14 7 -18 25 -20 88 -1 43 -7
100 -13 127 -9 37 -10 211 -4 670 4 342 8 740 9 886 l1 265 -270 0 c-148 0
-472 -4 -720 -8 l-450 -9 -24 26 c-14 14 -28 26 -32 26 -4 0 -26 -47 -50 -106z
m77 49 c11 -17 40 -18 391 -14 208 1 381 4 384 6 4 3 589 8 650 6 14 -1 15
-96 15 -933 0 -513 2 -960 5 -993 l4 -60 -470 -6 c-291 -4 -487 -10 -515 -17
-68 -17 -250 -15 -293 3 -20 8 -60 15 -88 15 -28 0 -79 5 -113 10 -33 6 -223
31 -421 55 -198 25 -373 49 -390 53 l-30 8 -3 607 c-2 489 0 608 10 612 15 5
180 14 278 14 54 1 74 6 107 28 23 14 47 38 54 52 27 54 52 82 84 95 19 8 48
34 65 58 38 53 62 85 122 158 29 36 63 97 90 159 23 56 44 101 46 101 3 0 11
-8 18 -17z m2459 -11 l520 -7 7 -71 c4 -38 4 -324 0 -634 -7 -534 -6 -565 11
-587 18 -22 17 -24 -11 -90 -16 -37 -37 -93 -47 -123 -10 -30 -31 -88 -47
-128 l-30 -73 24 -37 c14 -20 39 -52 57 -71 17 -18 31 -39 31 -46 0 -18 -29
-40 -82 -63 -28 -12 -48 -27 -48 -36 0 -17 -11 -19 -135 -17 -38 0 -104 -7
-146 -15 -75 -16 -76 -16 -130 9 -60 27 -74 24 -84 -22 l-6 -29 -232 -6 c-282
-7 -380 -15 -389 -30 -5 -7 -25 6 -55 37 -27 26 -54 47 -60 47 -12 0 -23 -23
-23 -50 0 -10 -5 -22 -10 -25 -18 -11 -40 60 -46 147 -3 46 -10 110 -16 143
-12 72 0 1777 13 1785 5 3 100 4 211 2 112 -2 437 -7 723 -10z"/>
<path d="M2336 4918 c-3 -7 -4 -465 -3 -1018 l2 -1005 691 -3 691 -2 12 61 c7
33 30 95 52 137 l39 77 0 867 c0 586 -3 869 -10 873 -6 4 -268 8 -583 10 -315
3 -643 7 -730 10 -124 5 -158 3 -161 -7z m774 -33 c14 -2 172 -3 353 -4 l327
-1 0 -860 0 -861 -32 -62 c-17 -34 -39 -88 -48 -120 l-16 -57 -399 -1 c-220
-1 -520 -1 -667 0 l-268 1 0 990 0 991 363 -7 c199 -3 373 -8 387 -9z"/>
<path d="M3843 4907 c-5 -7 -9 -407 -10 -890 l-3 -878 -35 -75 c-28 -61 -60
-172 -51 -181 1 -1 157 -7 346 -13 190 -6 379 -15 420 -19 41 -5 79 -5 83 -1
5 4 36 70 69 146 33 77 68 157 78 179 14 31 175 251 253 345 48 58 117 181
149 265 22 55 48 120 58 145 22 52 84 268 105 368 20 91 21 591 3 597 -7 2
-276 6 -598 9 -322 3 -647 7 -722 10 -99 3 -140 1 -145 -7z m1447 -37 c19 -11
7 -500 -13 -585 -72 -298 -174 -559 -274 -700 -35 -49 -108 -148 -163 -220
-62 -81 -117 -165 -145 -223 -25 -51 -45 -95 -45 -97 0 -3 -13 -33 -29 -67
-16 -35 -31 -72 -35 -82 -6 -17 -14 -18 -99 -12 -50 3 -229 9 -397 12 -168 4
-308 9 -312 13 -11 10 10 77 51 161 l36 75 -4 868 -3 869 711 -3 c391 -1 715
-6 721 -9z"/>
<path d="M5354 4885 c-3 -8 -4 -20 -2 -27 3 -7 -2 -19 -11 -26 -12 -9 -12 -12
-2 -10 8 2 14 -6 16 -19 1 -13 -1 -23 -5 -23 -3 0 -6 -98 -5 -217 l0 -218 -48
-175 c-27 -96 -66 -216 -88 -266 -21 -50 -39 -95 -39 -99 0 -14 -72 -167 -96
-204 -13 -20 -39 -56 -58 -81 -108 -137 -241 -321 -262 -362 -38 -75 -134
-298 -134 -313 0 -10 39 -12 195 -8 132 4 204 2 222 -6 16 -6 93 -12 173 -14
l145 -2 5 140 5 140 485 0 485 0 6 -145 c4 -80 7 -146 8 -147 10 -21 115 58
258 192 l53 51 0 175 c0 97 -4 189 -10 205 -14 43 -19 104 -9 136 5 17 4 26
-2 23 -5 -4 -9 -1 -9 4 0 6 5 11 11 11 8 0 8 5 -1 15 -8 9 -9 15 -2 15 7 0 11
83 11 258 1 141 4 377 7 523 7 256 6 267 -12 272 -35 11 -209 45 -259 52 -27
3 -88 15 -135 26 -107 25 -353 83 -486 115 -84 20 -128 24 -253 24 -124 0
-153 -3 -157 -15z m551 -68 c228 -55 374 -87 555 -122 74 -14 144 -29 154 -32
19 -5 19 -17 13 -392 -4 -212 -10 -483 -13 -601 -6 -172 -4 -221 6 -240 11
-19 13 -68 11 -200 l-2 -175 -32 -33 c-18 -19 -66 -61 -107 -95 -41 -33 -79
-66 -83 -74 -4 -7 -15 -13 -22 -13 -12 0 -15 21 -15 114 0 62 -3 128 -6 145
l-7 31 -511 -2 -511 -3 -3 -142 -3 -143 -127 0 c-90 1 -134 5 -152 15 -20 11
-61 13 -207 8 -212 -7 -202 -13 -152 94 91 195 117 240 225 382 193 255 204
273 300 506 59 143 117 331 145 470 15 72 19 136 19 322 l0 232 93 3 c148 5
230 -6 432 -55z"/>
</g>
</svg>
